<?xml version="1.0" encoding="utf-8"?>
<!-- Generator: Adobe Illustrator 23.1.0, SVG Export Plug-In . SVG Version: 6.00 Build 0)  -->
<svg version="1.1" xmlns="http://www.w3.org/2000/svg" xmlns:xlink="http://www.w3.org/1999/xlink" x="0px" y="0px"
	 viewBox="0 0 750 500" style="enable-background:new 0 0 750 500;" xml:space="preserve">
<style type="text/css">
	.st0{display:none;}
	.st1{display:inline;fill:#F3E2D9;}
	.st2{fill:#FDFFFF;}
	.st3{fill:#7A98C5;}
	.st4{fill:#FDF9FF;}
	.st5{fill:#ECC9BF;}
	.st6{fill:#FFFFFF;}
	.st7{clip-path:url(#SVGID_2_);}
	.st8{fill:none;stroke:#7A98C5;stroke-width:2.7588;stroke-linecap:round;stroke-linejoin:round;stroke-miterlimit:10;}
	.st9{fill:#73D7FF;}
	.st10{fill:#2F3052;}
	.st11{fill:#ACACAC;}
	.st12{fill:#F3E2D9;}
	.st13{fill:none;stroke:#2F3052;stroke-width:1.0617;stroke-miterlimit:10;}
	.st14{fill:none;stroke:#2F3052;stroke-width:2.1233;stroke-miterlimit:10;}
	.st15{fill:#61ABEB;}
	.st16{fill:#C80788;}
	.st17{fill:#F8F039;}
	.st18{fill:#5F70A1;}
	.st19{fill:#9ABDE7;}
	.st20{fill:#101010;}
	.st21{fill:none;stroke:#FFFFFF;stroke-width:0.959;stroke-linecap:round;stroke-linejoin:round;stroke-miterlimit:10;}
	.st22{fill:#1B1C3D;}
	.st23{fill:none;stroke:#7B7B7B;stroke-width:1.1102;stroke-linecap:round;stroke-linejoin:round;stroke-miterlimit:10;}
	.st24{fill:none;stroke:#7A98C5;stroke-width:0.984;stroke-miterlimit:10;}
	.st25{fill:#E3A299;}
	.st26{fill:#131314;}
	.st27{fill:#404366;}
	.st28{fill:#9297B7;}
	.st29{fill:none;stroke:#171717;stroke-width:0.4143;stroke-linecap:round;stroke-linejoin:round;stroke-miterlimit:10;}
	.st30{fill:#1E0B02;}
	.st31{fill:none;stroke:#1E0B02;stroke-width:0.6045;stroke-linecap:round;stroke-linejoin:round;stroke-miterlimit:10;}
	.st32{fill:#1F1E2D;}
	.st33{fill:none;stroke:#1E0B02;stroke-width:0.5455;stroke-linecap:round;stroke-linejoin:round;stroke-miterlimit:10;}
	.st34{fill:#2EADFF;stroke:#2EE0FF;stroke-width:1.476;stroke-miterlimit:10;}
</style>
<g id="BACKGROUND" class="st0">
	<rect class="st1" width="750" height="500"/>
</g>
<g id="OBJECTS">
	<g>
		<g>
			<g>
				
					<ellipse transform="matrix(0.9131 -0.4077 0.4077 0.9131 3.6806 238.0187)" class="st2" cx="560.3" cy="110.37" rx="50.36" ry="50.36"/>
				<g>
					<path class="st3" d="M582.27,126.07h-6.28v-2.09h6.28c0.58,0,1.05-0.47,1.05-1.05V98.86c0-0.58-0.47-1.05-1.05-1.05h-43.95
						c-0.58,0-1.05,0.47-1.05,1.05v24.07c0,0.58,0.47,1.05,1.05,1.05h6.28v2.09h-6.28c-1.73,0-3.14-1.41-3.14-3.14V98.86
						c0-1.73,1.41-3.14,3.14-3.14h43.95c1.73,0,3.14,1.41,3.14,3.14v24.07C585.41,124.66,584,126.07,582.27,126.07z"/>
					<path class="st3" d="M577.04,135.49h-33.48V117.7h33.48V135.49z M545.65,133.39h29.3v-13.6h-29.3V133.39z"/>
					<path class="st3" d="M577.04,97.82h-33.48V85.26h33.48V97.82z M545.65,95.72h29.3v-8.37h-29.3V95.72z"/>
					<rect x="541.46" y="117.7" class="st3" width="37.67" height="2.09"/>
					<rect x="570.76" y="100.96" class="st3" width="3.14" height="2.09"/>
					<rect x="577.04" y="100.96" class="st3" width="3.14" height="2.09"/>
					<rect x="548.79" y="122.93" class="st3" width="23.02" height="2.09"/>
					<rect x="548.79" y="129.21" class="st3" width="23.02" height="2.09"/>
				</g>
			</g>
			<g>
				<circle class="st3" cx="623.09" cy="81.11" r="29.05"/>
				<g>
					<path class="st4" d="M624.16,92.8c-7.04,0-12.76-5.73-12.76-12.76c0-7.04,5.73-12.76,12.76-12.76
						c7.04,0,12.76,5.73,12.76,12.76C636.92,87.07,631.19,92.8,624.16,92.8z M624.16,68.76c-6.22,0-11.27,5.06-11.27,11.28
						s5.06,11.27,11.27,11.27c6.22,0,11.27-5.06,11.27-11.27S630.38,68.76,624.16,68.76z"/>
					<g>
						<path class="st4" d="M624.16,96.39c-0.41,0-0.74-0.33-0.74-0.74V64.43c0-0.41,0.33-0.74,0.74-0.74c0.41,0,0.74,0.33,0.74,0.74
							v31.22C624.9,96.06,624.57,96.39,624.16,96.39z"/>
						<path class="st4" d="M639.77,80.78h-31.22c-0.41,0-0.74-0.33-0.74-0.74s0.33-0.74,0.74-0.74h31.22c0.41,0,0.74,0.33,0.74,0.74
							S640.18,80.78,639.77,80.78z"/>
					</g>
				</g>
			</g>
		</g>
		<g>
			<path class="st5" d="M470.2,131.46h-92.4c-1.91,0-3.46-1.55-3.46-3.46l0,0c0-1.91,1.55-3.46,3.46-3.46h92.4
				c1.91,0,3.46,1.55,3.46,3.46l0,0C473.65,129.92,472.11,131.46,470.2,131.46z"/>
			<path class="st5" d="M699.21,211.16h-44.85c-1.91,0-3.46-1.55-3.46-3.46l0,0c0-1.91,1.55-3.46,3.46-3.46h44.85
				c1.91,0,3.46,1.55,3.46,3.46l0,0C702.66,209.62,701.12,211.16,699.21,211.16z"/>
			<path class="st5" d="M80.17,336.44H45.17c-1.91,0-3.46-1.55-3.46-3.46l0,0c0-1.91,1.55-3.46,3.46-3.46h35.01
				c1.91,0,3.46,1.55,3.46,3.46l0,0C83.63,334.9,82.08,336.44,80.17,336.44z"/>
			<path class="st3" d="M686.38,260.47h-5.48c-1.44,0-2.61-1.17-2.61-2.61v-5.14c0-1.44,1.17-2.61,2.61-2.61h5.48
				c1.44,0,2.61,1.17,2.61,2.61v5.14C688.98,259.3,687.82,260.47,686.38,260.47z"/>
			<path class="st3" d="M428.39,95.85h-5.48c-1.44,0-2.61-1.17-2.61-2.61V88.1c0-1.44,1.17-2.61,2.61-2.61h5.48
				c1.44,0,2.61,1.17,2.61,2.61v5.14C430.99,94.69,429.83,95.85,428.39,95.85z"/>
			<path class="st3" d="M84.03,280.52h-5.48c-1.44,0-2.61-1.17-2.61-2.61v-5.14c0-1.44,1.17-2.61,2.61-2.61h5.48
				c1.44,0,2.61,1.17,2.61,2.61v5.14C86.64,279.36,85.47,280.52,84.03,280.52z"/>
		</g>
		<g>
			<g>
				
					<rect x="63.49" y="91.58" transform="matrix(-1 -1.224647e-16 1.224647e-16 -1 171.9463 228.4771)" class="st3" width="44.97" height="45.33"/>
				<polygon class="st3" points="108.46,129.59 108.46,145.39 95.01,129.59 				"/>
			</g>
			<g>
				<path class="st6" d="M89.61,124.09c0,2.01-1.63,3.63-3.63,3.63c-2.01,0-3.63-1.63-3.63-3.63c0-2.01,1.63-3.63,3.63-3.63
					C87.98,120.46,89.61,122.09,89.61,124.09z"/>
				<g>
					<defs>
						<polyline id="SVGID_1_" points="85.97,124.09 113.92,97.52 85.97,97.52 58.03,97.52 85.97,124.09 						"/>
					</defs>
					<clipPath id="SVGID_2_">
						<use xlink:href="#SVGID_1_"  style="overflow:visible;"/>
					</clipPath>
					<g class="st7">
						<g>
							<path class="st6" d="M85.97,136.48c-6.83,0-12.38-5.55-12.38-12.38c0-6.83,5.55-12.38,12.38-12.38
								c6.83,0,12.38,5.55,12.38,12.38C98.36,130.92,92.8,136.48,85.97,136.48z M85.97,115.16c-4.93,0-8.93,4.01-8.93,8.93
								c0,4.93,4.01,8.94,8.93,8.94c4.93,0,8.94-4.01,8.94-8.94C94.91,119.17,90.9,115.16,85.97,115.16z"/>
						</g>
						<g>
							<path class="st6" d="M85.97,144.65c-11.33,0-20.55-9.22-20.55-20.55c0-11.33,9.22-20.55,20.55-20.55
								c11.33,0,20.55,9.22,20.55,20.55C106.53,135.43,97.31,144.65,85.97,144.65z M85.97,106.99c-9.43,0-17.11,7.67-17.11,17.11
								c0,9.43,7.68,17.11,17.11,17.11c9.43,0,17.11-7.67,17.11-17.11C103.08,114.66,95.4,106.99,85.97,106.99z"/>
						</g>
					</g>
				</g>
			</g>
		</g>
		<g>
			<g>
				<circle class="st2" cx="249.53" cy="84.52" r="41.37"/>
			</g>
			<g>
				<path class="st8" d="M266.23,77.97c0.73,1.95,1.14,4.07,1.14,6.28c0,9.85-7.99,17.84-17.84,17.84
					c-9.85,0-17.84-7.99-17.84-17.84c0-9.85,7.99-17.84,17.84-17.84c3.15,0,6.11,0.82,8.68,2.25"/>
				<polyline class="st8" points="246.82,76.83 253.27,83.43 265.89,68.66 				"/>
			</g>
		</g>
	</g>
	<g>
		<path class="st9" d="M90.53,439.76c0,0,5.75-233.42,293.79-233.42s290.46,234.49,290.46,234.49L90.53,439.76z"/>
		<g>
			<g>
				<g>
					<g>
						<g>
							<g>
								<rect x="555.39" y="300.04" class="st3" width="27.44" height="140.79"/>
								<path class="st3" d="M591.45,426.03h-43.97c-7.31,0-13.24,5.93-13.24,13.24v1.57h70.44v-1.57
									C604.69,431.95,598.76,426.03,591.45,426.03z"/>
								<rect x="547.57" y="300.04" class="st10" width="27.44" height="140.79"/>
								<path class="st10" d="M583.64,426.03h-43.97c-7.31,0-13.24,5.93-13.24,13.24v1.57h70.44v-1.57
									C596.87,431.95,590.95,426.03,583.64,426.03z"/>
							</g>
							<polygon class="st11" points="547.57,300.04 547.57,318.26 582.83,306.38 582.83,300.04 							"/>
						</g>
						<g>
							<g>
								<rect x="266.46" y="300.04" class="st3" width="27.44" height="140.79"/>
								<path class="st3" d="M302.53,426.03h-43.97c-7.31,0-13.24,5.93-13.24,13.24v1.57h70.44v-1.57
									C315.76,431.95,309.84,426.03,302.53,426.03z"/>
								<rect x="258.64" y="300.04" class="st10" width="27.44" height="140.79"/>
								<path class="st10" d="M294.71,426.03h-43.97c-7.31,0-13.24,5.93-13.24,13.24v1.57h70.44v-1.57
									C307.95,431.95,302.02,426.03,294.71,426.03z"/>
							</g>
							<polygon class="st11" points="258.64,300.04 258.64,318.26 293.9,306.38 293.9,300.04 							"/>
						</g>
					</g>
					<g>
						<g>
							<path class="st10" d="M527.9,187.82h71.55c5.81,0,11.17,3.13,14.02,8.19l20.96,37.65c2.59,4.59-0.73,10.27-6,10.27h-76.21
								L527.9,187.82z"/>
							<polygon class="st11" points="562.84,187.82 594.36,243.93 569.11,243.93 538.5,187.82 							"/>
							<g>
								<polygon class="st3" points="578.6,201.55 582.16,207.81 601.03,207.81 597.38,201.55 								"/>
								<polygon class="st12" points="583.28,209.87 584.33,211.74 603.21,211.74 602.06,209.87 								"/>
								<polygon class="st12" points="585.19,213.24 586.24,215.11 605.12,215.11 603.97,213.24 								"/>
								<polygon class="st12" points="586.76,216.6 587.81,218.47 606.69,218.47 605.54,216.6 								"/>
								<polygon class="st12" points="591.51,224.7 592.56,226.57 611.43,226.57 610.28,224.7 								"/>
								<polygon class="st12" points="593.42,228.07 594.47,229.94 613.34,229.94 612.19,228.07 								"/>
								<polygon class="st3" points="588.62,220.02 590.24,222.91 619.41,222.91 617.63,220.02 								"/>
								<polygon class="st3" points="601.03,201.55 610.6,218.11 617.11,218.11 607.45,201.55 								"/>
								<polygon class="st3" points="613.34,224.7 616.49,229.94 623,229.94 619.76,224.7 								"/>
							</g>
						</g>
						<g>
							<path class="st3" d="M259.03,300.04h337.68v-21.28c0-7.89-1.96-15.66-5.7-22.61l-31.54-58.59c-3.23-6-9.5-9.75-16.31-9.75
								H259.03V300.04z"/>
							<path class="st10" d="M233.26,300.04h81.95v-21.28c0-7.89-1.96-15.66-5.7-22.61l-31.7-58.89c-3.13-5.81-9.2-9.44-15.8-9.44
								h-28.75V300.04z"/>
							<g>
								<polyline class="st13" points="351.54,240.47 332.62,206.85 512.93,206.85 536.93,247.28 								"/>
								<line class="st14" x1="341.39" y1="222.41" x2="522.33" y2="222.41"/>
								<polygon class="st10" points="348.27,234.66 529.51,234.66 536.93,247.28 351.54,240.47 								"/>
							</g>
						</g>
					</g>
					<g>
						<g>
							<g>
								<rect x="330.4" y="148.11" class="st3" width="8.68" height="39.7"/>
								<rect x="308.71" y="148.11" class="st10" width="21.69" height="39.7"/>
							</g>
							<g>
								<rect x="315.41" y="148.11" class="st3" width="8.68" height="39.7"/>
								<rect x="293.72" y="148.11" class="st10" width="21.69" height="39.7"/>
							</g>
							<g>
								<rect x="300.23" y="148.11" class="st3" width="8.68" height="39.7"/>
								<rect x="278.54" y="148.11" class="st10" width="21.69" height="39.7"/>
							</g>
							<g>
								<rect x="284.05" y="148.11" class="st3" width="8.68" height="39.7"/>
								<rect x="262.36" y="148.11" class="st10" width="21.69" height="39.7"/>
							</g>
							<g>
								<path class="st2" d="M290.64,154.28c0,1.24-1.01,2.25-2.25,2.25c-1.24,0-2.25-1.01-2.25-2.25c0-1.24,1.01-2.25,2.25-2.25
									C289.63,152.04,290.64,153.04,290.64,154.28z"/>
								<path class="st2" d="M306.82,154.28c0,1.24-1.01,2.25-2.25,2.25c-1.24,0-2.25-1.01-2.25-2.25c0-1.24,1.01-2.25,2.25-2.25
									C305.81,152.04,306.82,153.04,306.82,154.28z"/>
								<path class="st2" d="M322,154.28c0,1.24-1.01,2.25-2.25,2.25c-1.24,0-2.25-1.01-2.25-2.25c0-1.24,1.01-2.25,2.25-2.25
									C320.99,152.04,322,153.04,322,154.28z"/>
								<circle class="st2" cx="334.68" cy="154.28" r="2.25"/>
							</g>
						</g>
						<rect x="262.36" y="182.05" class="st11" width="76.72" height="5.76"/>
					</g>
				</g>
				<g>
					<g>
						<path class="st6" d="M367.83,381.35L367.83,381.35c0,18.67,15.14,33.81,33.81,33.81h74.15v-33.81H367.83z"/>
						<path class="st2" d="M351.54,240.47h172.02c0,0,23.96,1.92,23.96,32.58c0,30.67,0,108.29,0,108.29H367.83V274.62
							c0-10.06-3.66-19.78-10.31-27.34L351.54,240.47z"/>
						<g>
							<circle class="st15" cx="462.68" cy="301.73" r="28.77"/>
							<circle class="st16" cx="443.69" cy="334" r="28.77"/>
							<circle class="st17" cx="484.58" cy="334" r="28.77"/>
						</g>
					</g>
					<g>
						<path class="st18" d="M463.15,381.35c0,0-15.9-1.4-15.9,15.41c0,16.81-13.64,18.4-13.64,18.4h42.19v-33.81H463.15z"/>
						<path class="st19" d="M463.15,381.35h180.82c0,0,16.86,0.89,16.86,19.43v21.92H475.8v-23.1
							C475.8,399.6,475.7,381.35,463.15,381.35z"/>
						<path class="st6" d="M701.97,422.7c0,0,2.22,13.64-19.98,17.96H506.56l21.34-17.96v-18.55h174.13L701.97,422.7z"/>
						<path class="st19" d="M475.8,422.7L475.8,422.7c0,9.92,8.04,17.96,17.96,17.96h16.19c9.92,0,17.96-8.04,17.96-17.96v0H475.8z"
							/>
					</g>
				</g>
			</g>
			<g>
				<g>
					<g>
						<g>
							<g>
								<polygon class="st20" points="116.19,420.88 131.43,420.88 156.63,434.36 113.29,433.84 								"/>
								<g>
									<polygon class="st6" points="113.14,439.54 113.29,433.84 156.63,434.36 156.48,440.06 									"/>
								</g>
								<line class="st21" x1="141.96" y1="425.84" x2="136.97" y2="427.21"/>
								<line class="st21" x1="137.08" y1="423.34" x2="132.08" y2="424.7"/>
							</g>
							<polygon class="st2" points="135.26,399.39 119.73,399.39 116.19,420.88 131.72,420.88 							"/>
						</g>
						<g>
							<g>
								<polygon class="st20" points="163.29,421.34 178.53,421.34 203.74,434.83 160.4,434.31 								"/>
								<g>
									<polygon class="st6" points="160.25,440.01 160.4,434.31 203.74,434.83 203.58,440.53 									"/>
								</g>
								<line class="st21" x1="189.07" y1="426.31" x2="184.07" y2="427.67"/>
								<line class="st21" x1="184.19" y1="423.81" x2="179.19" y2="425.17"/>
							</g>
							<polygon class="st2" points="178.57,399.86 163.04,399.86 163.29,421.34 178.83,421.34 							"/>
						</g>
						<g>
							<path class="st22" d="M176.42,237.96c0,0,1.29,2.75,3.64,28.03c0.48,5.2,0.79,12.44,0.73,17.66l1.2,129.78l-22.23-0.24
								l-4.23-137.1l-18.18,138.46l-23.18-0.84l14.48-171.81l10.47-1.82L176.42,237.96z"/>
							<line class="st23" x1="155.53" y1="276.09" x2="165.04" y2="271.72"/>
						</g>
					</g>
					<g>
						<g>
							<g>
								<g>
									<g>
										<path class="st2" d="M175.11,170.34c0,0,13.06,7.78,15.6,28.86l-18.65,10.24L175.11,170.34z"/>
									</g>
								</g>
							</g>
						</g>
						<g>
							<path class="st2" d="M150.16,163.75c-6.43,0.55-12.77,1.96-18.76,4.36c-1.47,0.59-2.91,1.23-4.24,1.92
								c-4.16,2.18-2.92,6.88-2.39,11.69l2.45,64.98l52.43-1.33l2.08-61.51c0.46-6.7-3.5-12.86-9.63-15.02
								c-6.87-2.42-15.25-5.13-18.9-5.35L150.16,163.75z"/>
							<line class="st24" x1="180.2" y1="206.18" x2="181.5" y2="187.15"/>
							<path class="st25" d="M169.01,167.78c0,0-9.65-3.78-15.81-4.28c0,0-8.42,0.36-14.2,2.14c0,0,3.21,6.85,17.98,7.97
								C171.75,174.73,169.01,167.78,169.01,167.78z"/>
						</g>
						<g>
							<g>
								<path class="st26" d="M213.64,199.26l-10.95,50.9c-0.38,1.75-1.94,2.99-3.73,2.96l-40.74-0.72
									c-2.37-0.04-4.11-2.25-3.59-4.57l11.45-50.89c0.39-1.73,1.94-2.96,3.72-2.92l40.25,0.71
									C212.4,194.77,214.14,196.96,213.64,199.26z"/>
								<polygon class="st26" points="212.52,195.71 214.93,198.2 157.87,253.58 155.29,250.91 								"/>
								<path class="st27" d="M215.81,201.49l-10.95,50.9c-0.38,1.75-1.94,2.99-3.73,2.96l-40.74-0.72
									c-2.37-0.04-4.11-2.25-3.59-4.57l11.45-50.89c0.39-1.73,1.94-2.96,3.72-2.92l40.25,0.71
									C214.57,196.99,216.3,199.18,215.81,201.49z"/>
								<path class="st28" d="M193.4,220.09c0.25,2.39-1.48,4.53-3.87,4.79c-2.39,0.25-4.53-1.48-4.79-3.87
									c-0.25-2.39,1.48-4.53,3.87-4.79C191,215.97,193.14,217.7,193.4,220.09z"/>
							</g>
							<path class="st25" d="M216.54,216.57L213.48,229c-0.37,1.52-1.75,2.57-3.31,2.54l0,0c-4.6-0.08-8.01-4.28-7.15-8.8l0.79-4.14
								c0.63-3.32,3.43-5.79,6.8-6.01l2.47-0.16C215.33,212.29,217.09,214.38,216.54,216.57z"/>
						</g>
						<g>
							<g>
								<polygon class="st25" points="97.94,200.61 122.59,238.26 115.95,245.79 88.74,218.13 								"/>
								<path class="st25" d="M145.25,239.97l-10.55-5.56l1.04-2.4c0.38-0.87,0.14-1.9-0.57-2.51c-0.74-0.63-1.79-0.65-2.55-0.04
									l-10.39,8.46l-6.28,7.87c5.7,5.06,9.42,5,11.57,4.02c0.25,0.09,0.5,0.18,0.75,0.26l8.76,2.61c0.81,0.36,1.75,0.01,2.15-0.81
									c0.29-0.59,0.39-1.54-1.3-2.43l1.69,0.89c0.86,0.38,1.85,0,2.25-0.88c0.38-0.77-0.09-1.8-1.08-2.46l1.29,0.53
									c0.94,0.42,2.04-0.06,2.39-1.09c0.3-0.89-0.15-1.87-0.96-2.3l-1.86-0.98l2.21,0.56c1.02,0.37,2.16-0.19,2.49-1.3
									C146.6,241.45,146.1,240.42,145.25,239.97z"/>
								<line class="st29" x1="142.17" y1="243.41" x2="135.93" y2="240.36"/>
								<line class="st29" x1="140.49" y1="246.86" x2="134.48" y2="244.27"/>
								<line class="st29" x1="138.45" y1="249.66" x2="133.36" y2="247.58"/>
							</g>
							<g>
								<path class="st25" d="M132.52,190.23l-31.35,28.05c-2.93,3.07-7.54,3.54-10.99,1.12l0,0c-4.34-3.05-5.09-9.38-1.58-13.42
									l29.48-29.88c3.52-4.06,9.49-4.57,13.6-1.14l0,0C136.27,178.78,136.66,185.88,132.52,190.23z"/>
								<g>
									<path class="st2" d="M133.21,167.42c0,0-12.59,2.55-28.22,21.94l13.39,17.96l20.4-15.15L133.21,167.42z"/>
									<line class="st24" x1="125.3" y1="202.18" x2="137.13" y2="193.39"/>
								</g>
							</g>
						</g>
					</g>
					<g>
						<path class="st30" d="M171.39,134.97c0.62,2.74,3.34,4.46,6.09,3.84c2.74-0.62,4.46-3.34,3.84-6.09
							c-0.62-2.74-3.34-4.46-6.09-3.84C172.49,129.5,170.77,132.23,171.39,134.97z"/>
						<polygon class="st25" points="163.58,147.53 163.12,167.55 148.08,166.24 151.79,133.72 						"/>
						<polygon class="st30" points="163.31,159.25 152.59,144.98 163.51,148.61 						"/>
						<path class="st25" d="M170.63,113.35c5.14,0.69,7.65,6.14,8.16,11.02c0.59,5.63,1.11,14.35-0.64,18.63
							c-2.71,6.61-8.45,10.48-17.14,8.13c0,0-10.17-1.24-11.64-16.57C147.62,116.4,159.69,111.88,170.63,113.35z"/>
						<g>
							<path class="st30" d="M175.79,131.6c0.12,0.63,0.73,1.05,1.36,0.93c0.63-0.12,1.05-0.73,0.93-1.36
								c-0.12-0.63-0.73-1.05-1.36-0.93C176.09,130.36,175.67,130.97,175.79,131.6z"/>
							<path class="st30" d="M165.96,131.6c0.12,0.63,0.73,1.05,1.36,0.93c0.63-0.12,1.05-0.73,0.93-1.36
								c-0.12-0.63-0.73-1.05-1.36-0.93C166.26,130.36,165.84,130.97,165.96,131.6z"/>
							<path class="st31" d="M173.63,132.89l1.06,3.87c0.09,0.36-0.14,0.72-0.5,0.79l-1.23,0.24"/>
							<path class="st32" d="M174.77,123.19c0,0-0.46,1.38,1.26,1.66c1.31,0.21,2.14,0.33,2.87,0.65c0.42,0.18,0.9,0.03,1.15-0.34
								l0,0c0.2-0.3,0.21-0.7,0.01-1c-0.4-0.62-1.27-1.58-2.86-1.86C175.16,121.93,174.77,123.19,174.77,123.19z"/>
							<path class="st32" d="M168.74,123.25c0,0,0.53,1.39-1.69,1.63c-1.68,0.18-3.7,0.82-4.65,1.12c-0.54,0.17-1.15,0.01-1.45-0.37
								l0,0c-0.24-0.31-0.23-0.7,0.04-1c0.55-0.61,2.64-2.09,4.69-2.33C168.3,121.98,168.74,123.25,168.74,123.25z"/>
							<path class="st31" d="M167.47,139.95c0,0,2.28,1.92,6.14,1.1"/>
						</g>
						<path class="st32" d="M153.59,137.27l2.24-11.2c0.5-2.6-0.33-4.74-0.89-7.9c9.84,0.03,21.41-0.12,21.41-1.02
							c0,0-2.8-11.18-20.99-8.03c-27.36,4.74-14.83,30.26-4.86,35.86L153.59,137.27z"/>
						<g>
							<path class="st25" d="M143.76,135.96c0.68,3,3.66,4.89,6.66,4.21c3-0.68,4.89-3.66,4.21-6.66s-3.66-4.89-6.66-4.21
								C144.97,129.97,143.08,132.95,143.76,135.96z"/>
							<path class="st33" d="M146.81,132.92c0,0,4.16-0.88,4.92,3.69"/>
						</g>
						<path class="st32" d="M154.95,118.15c0,0,26.56,3.26,26.19-5.2c-0.38-8.45-16.16-12.01-23.09-3.74L154.95,118.15z"/>
					</g>
				</g>
			</g>
		</g>
		<line class="st34" x1="48.1" y1="440.83" x2="716.51" y2="440.83"/>
	</g>
</g>
</svg>
