<?xml version="1.0" encoding="UTF-8"?>
<!DOCTYPE svg PUBLIC "-//W3C//DTD SVG 1.1//EN" "http://www.w3.org/Graphics/SVG/1.1/DTD/svg11.dtd">
<!-- Creator: CorelDRAW -->
<svg xmlns="http://www.w3.org/2000/svg" xml:space="preserve" width="50mm" height="50mm" version="1.1" style="shape-rendering:geometricPrecision; text-rendering:geometricPrecision; image-rendering:optimizeQuality; fill-rule:evenodd; clip-rule:evenodd"
viewBox="0 0 5000 5000"
 xmlns:xlink="http://www.w3.org/1999/xlink"
 xmlns:xodm="http://www.corel.com/coreldraw/odm/2003">
 <defs>
  <style type="text/css">
   <![CDATA[
    .str1 {stroke:#FF7FB2;stroke-width:20;stroke-miterlimit:22.9256}
    .str0 {stroke:#FFCC00;stroke-width:20;stroke-miterlimit:22.9256}
    .str2 {stroke:#06A1E2;stroke-width:7.62;stroke-miterlimit:22.9256}
    .fil0 {fill:none}
    .fil3 {fill:#06A1E2}
    .fil4 {fill:#165597}
    .fil5 {fill:#1D4586}
    .fil8 {fill:#CAE9F0}
    .fil7 {fill:#F6F6F6}
    .fil6 {fill:#FACB0A}
    .fil2 {fill:white}
    .fil1 {fill:#000066;fill-opacity:0.501961}
    .fil11 {fill:#3300CC;fill-opacity:0.501961}
    .fil10 {fill:#FF0066;fill-opacity:0.501961}
    .fil9 {fill:#FFCC00;fill-opacity:0.501961}
   ]]>
  </style>
 </defs>
 <g id="Camada_x0020_1">
  <metadata id="CorelCorpID_0Corel-Layer"/>
  <circle class="fil0 str0" cx="2471.96" cy="2408.76" r="2000"/>
  <path class="fil1" d="M2471.96 501.33c1053.44,0 1907.43,853.99 1907.43,1907.43 0,1053.44 -853.99,1907.43 -1907.43,1907.43 -1053.44,0 -1907.43,-853.99 -1907.43,-1907.43 0,-1053.44 853.99,-1907.43 1907.43,-1907.43z"/>
  <circle class="fil2 str1" cx="2471.96" cy="2408.76" r="1742.07"/>
  <path class="fil3" d="M3396.75 2118.4l0.28 -18.55 -169.14 54.63c-36.33,11.11 -146.14,43.1 -177.39,46.14 37.18,53.72 80.15,100.51 107.32,169 24.38,61.47 62.74,158.42 -2.43,217.81 -77.47,70.6 -224.29,49.13 -324.02,23.34 -33.38,-8.63 -73.8,-25.06 -104.12,-31.13l-96.55 265.82c-5.37,9.55 -11.17,18.42 -15.69,25.68 -29.3,47.05 -74.88,107.23 -131.34,113.26 -146.31,15.64 -224.16,-293.73 -244.64,-406.64 -43.29,2.1 -403.25,128.79 -448.92,-65.8 -22.2,-94.58 69.66,-239.82 122.33,-299.89l55.81 -63.62c12.22,-12.99 26.72,-29.45 37.41,-40.73 -3.98,-10.7 1.06,-0.87 -6.78,-10.19 -44.76,-53.31 -89.6,-96.84 -129.03,-165.13 -28.55,-49.45 -97.02,-157.39 -68.33,-244.27 27.92,-84.53 113.78,-98.01 210.78,-95.69 117.67,2.82 216.52,51.01 248.82,54.56 12.65,-43.01 22.94,-87.33 36.86,-126.95l34.05 -87.52c33.65,-73.45 89.61,-185.8 174.12,-190.37 114.37,-6.19 183.19,176.72 209.67,272.98 6.09,22.12 11.4,41.83 17.34,66.5 5.5,22.83 8.86,48.7 16.84,68.3l128.41 -31.41c83.17,-16.99 193.47,-23.87 267.91,22.93 37.69,23.7 48.98,55.4 55.37,111.64 13.31,-3.94 101.15,-54.63 106.65,-65.48 -0.06,-15.94 -6.77,-21.65 -11.73,-32.76 -12.86,-28.78 -82.17,-149.55 -99.26,-168.95 -6,-6.82 -19.76,-17.24 -24.88,-30.65l-6.87 -6.18 -10.31 -13.19c-47.32,-58.28 -116.35,-121.54 -177.59,-161.5 -47.52,-31.01 -97.2,-58.8 -148.31,-83.18 -58.55,-27.94 -156.53,-56.99 -219.37,-62.29 -19.48,-1.64 -25.71,-3.05 -43.27,-6 -60.57,-10.17 -192.76,2.15 -257.74,17.49 -7.82,1.85 -8.98,3.56 -20.16,6.4 -52.4,13.3 -99.15,32.84 -149.9,52.95 -58.89,23.34 -108.24,62.63 -161.42,97.29l-109.03 97.73 -125.03 162.08c-41.29,56.22 -81.82,160.23 -108.57,240.64 -27.23,81.86 -51.12,244.05 -48.43,331.69l6.42 74.87c0.66,9.3 -0.23,18.37 0.64,27.79 7.77,84.66 32.22,183.75 63.39,261.65l76.07 158.76c25.86,44.48 64.96,102.08 99.72,139.97 8.97,9.78 15.5,16.88 24.42,26.65l36.72 38.1c42.7,39.34 85.21,74.99 132.81,107.27l78.29 45.96c41.97,23.11 85.37,39.21 129.11,54.37 107.75,37.34 250.43,50.83 362.34,35.51 128.03,-17.51 263.67,-62.87 371.34,-141.46 10.03,-7.33 19.76,-12.64 29.75,-20.82l110.83 -95.75 117.52 -145.39c44.01,-66.83 79.08,-136.93 107.27,-213.59 20.12,-54.74 34.31,-111.81 46.69,-169.57 3.62,-16.85 5.3,-26.19 7.74,-44.93 4.54,-34.83 9.42,-64.58 9.14,-100.36l0.07 -49.82z"/>
  <path class="fil4" d="M3050.5 2200.62c-11.45,-9.75 -34.57,-37.94 -39.76,-48.23 -10.36,-10.02 -19.06,-19.36 -29.6,-30.43 5.21,-14.68 34.68,-38.48 42.98,-48.59 7.42,-9.03 12.83,-15.63 20.26,-24.01l95.6 -125.46c1.01,-6.4 31.23,-62.93 37.14,-78.1 5.49,-14.09 10.78,-27.22 14.85,-44.31 3.55,-14.89 4.72,-34.23 9.72,-48.39 -6.39,-56.24 -17.68,-87.94 -55.37,-111.64 -74.44,-46.8 -184.74,-39.92 -267.91,-22.93l-128.41 31.41c-7.98,-19.6 -11.34,-45.47 -16.84,-68.3 -5.94,-24.67 -11.25,-44.38 -17.34,-66.5 -26.48,-96.26 -95.3,-279.17 -209.67,-272.98 -84.51,4.57 -140.47,116.92 -174.12,190.37l-34.05 87.52c-13.92,39.62 -24.21,83.94 -36.86,126.95 -32.3,-3.55 -131.15,-51.74 -248.82,-54.56 -97,-2.32 -182.86,11.16 -210.78,95.69 -28.69,86.88 39.78,194.82 68.33,244.27 39.43,68.29 84.27,111.82 129.03,165.13 7.84,9.32 2.8,-0.51 6.78,10.19 -10.69,11.28 -25.19,27.74 -37.41,40.73l-55.81 63.62c-52.67,60.07 -144.53,205.31 -122.33,299.89 45.67,194.59 405.63,67.9 448.92,65.8 20.48,112.91 98.33,422.28 244.64,406.64 56.46,-6.03 102.04,-66.21 131.34,-113.26 4.52,-7.26 10.32,-16.13 15.69,-25.68l96.55 -265.82c30.32,6.07 70.74,22.5 104.12,31.13 99.73,25.79 246.55,47.26 324.02,-23.34 65.17,-59.39 26.81,-156.34 2.43,-217.81 -27.17,-68.49 -70.14,-115.28 -107.32,-169z"/>
  <path class="fil5" d="M3156.23 3489.1c11.06,-4.93 3.78,-1.24 12.67,-7.61l154.93 -139.87c15.18,-13.01 27.06,-22.57 42.26,-35.58 14.67,-12.56 24.16,-26.78 36.15,-42.29 10.58,-13.68 20.87,-33.65 29.62,-49.44 30.51,-55.09 46.27,-113.67 69.74,-172.81l41.76 -118.01c28.99,-83.35 84.36,-239.2 84.08,-320.88l0 -163.79c0.06,-31.48 -3.53,-48.33 -3.24,-78.34 0.38,-38.28 -4.94,-81.45 -6.53,-113.89 -0.69,-13.81 0.71,-28.94 0.03,-42.76l-3.25 -78.33c0.77,-163.33 -74.98,-75.7 -83.18,-34.12l-43.58 447.13c43.39,11.08 65.66,43.48 61.48,88.46 -2.96,31.68 -12.79,38.05 -32.21,68.22 -33.6,52.19 -65.22,106.57 -88.72,166.26 -46.27,117.57 1.22,45.01 -97.21,157.01 -13.73,15.63 -14.37,14.36 -31.82,4.24 0,-22.69 2.49,-19.26 26.75,-49.01 5.61,-6.87 10.62,-14.43 15.94,-21.7 33.02,-45.04 56.34,-98.92 81.47,-149.28 24.14,-48.39 45.82,-107.87 74.23,-157.21 5.37,-9.32 13.27,-13.66 13,-28.71 -0.57,-31.97 -54.4,-46.35 -101.56,-14.91 -27.41,18.26 -54.59,39.5 -77.01,65.16 -55.71,63.76 -89.39,110.43 -130.15,188.51 -41.55,79.58 -51.58,132.58 -159.57,142.05 -65.4,5.73 -49.31,-6.65 -130.55,17.18 -21.45,6.29 -55.64,23.1 -74.65,35.71 -29.03,19.27 -35.01,20.08 -65.2,49.62 -98.85,96.72 -138.09,174.02 -186.72,315.22 -4.41,12.81 -5.38,20.72 -10.66,34.6 -1.38,37.47 -40.22,114.38 -20.36,282.19l0.84 191.32c31.49,16.55 144.33,7.12 191.74,7.12 66.08,0 132.15,0 198.23,0l-3.25 -81.88c0.01,-30.78 -0.33,-56.1 2.99,-82.18 22.73,-178.63 177.82,-221.3 210.72,-275.8 0.14,-0.24 0.62,-1.03 0.79,-1.6z"/>
  <path class="fil5" d="M2408.76 3449.93c-16,-42.01 -16.88,-61.57 -40.05,-116.32 -57.11,-134.91 -160.34,-276.12 -294.62,-318.07 -18.62,-5.82 -38.07,-10.41 -58.49,-14.24 -35.9,-6.76 -89.94,2.7 -132.02,-15.59 -23.67,-10.29 -50.87,-30.64 -62.94,-52.09 -21.53,-38.27 -38.35,-80.51 -66.53,-126.49l-60.22 -90.68c-30.51,-44.26 -115.58,-131.83 -172.31,-131.98 -29.67,-0.07 -66.16,14.96 -38.56,56.81l62.9 130.47c37.42,81.46 54.34,122.1 110.28,199.61 23.01,31.87 27.88,25.68 27.88,51.34 -23.29,13.5 -17.89,10.66 -54.43,-29.37 -65.57,-71.83 -40.19,-41.31 -73.66,-129.36 -8.25,-21.7 -21.78,-51.38 -32.51,-71.19l-55.83 -95.49c-21.46,-34.01 -46.9,-61.36 -27.35,-112.55 18.2,-47.68 43.4,-33.86 52.04,-49.79 2.87,-5.28 -2.35,-64.07 -2.75,-68.19l-11.19 -144.39c-2.4,-21.03 -6.58,-50.21 -8.51,-72.56 -4.24,-49.18 -10.16,-96.22 -15.92,-142.77 -7.39,-59.75 -48.13,-89.27 -68.15,-69.98 -23.38,22.53 -14.68,92.23 -16.95,138.32 -0.78,15.84 -3.19,17.08 -3.4,35.45l-4.49 116.12c-6.68,48.34 -8.37,284.4 -4.38,313.99 6.27,46.39 29.63,111.68 40.16,151.81 3.7,14.09 4.26,17.16 8.78,29.55l39.24 117.22c3.94,12.95 6.25,16.16 10.46,27.7l31.07 87.02c28.31,77.61 70.47,200.57 132.74,253.31 43.63,36.95 98.94,83.44 140.48,123.79 12.29,11.94 8.59,11.15 25.28,18.59 0.36,6.32 3.17,7.1 18.74,22.2l74.57 64.29c79.59,65.62 129.71,89.17 157.01,212.49 7.95,35.95 7.04,92.49 6.55,135.51 -0.23,20.25 -3.38,24.55 -3.38,46.14 66.08,0 132.16,0 198.24,0 47.4,0 160.25,9.43 191.73,-7.12l0.87 -191.3c6.88,-57.84 9.7,-124.78 -0.52,-179.34 -3.36,-17.94 -6.35,-37.45 -9.22,-53.98 -2.82,-16.2 -10.2,-36.89 -10.64,-48.89z"/>
  <path class="fil2" d="M2504.52 2282.18c-6.29,-4.57 -107.01,-6.33 -124.99,-7.28 -0.1,0.03 -39.86,43.96 -65.41,0.73 -15.74,-26.62 0.35,-63.46 29.76,-63.95 15.07,-0.25 23.65,6.69 31.51,18.15 11.45,16.68 9.63,13.23 34.44,15.36 19.82,1.7 81,5.9 95.15,-2.18l1.35 -121.05 194.92 0c-0.82,-1.87 -2.44,-6.29 -2.93,-7.46 -6.52,-15.44 -6.5,-9.19 -6.82,-24.58l6.5 -0.18c-23.7,-4.58 -97.21,16.27 -126.77,20.03 -25.76,3.28 -44.41,8.29 -68.16,8.71 -18.77,0.33 -50.33,3.16 -71.55,5.5 -10.92,19.68 -31.5,39.3 -55.26,39.55 -25.73,0.27 -45.61,-25.3 -48.14,-49.22 -6.45,-60.99 72.91,-94.5 100.71,-32.72 53.12,2.79 234.41,-46.18 272.42,-72.2 0,-48.94 9.88,-41.71 6.89,-58.81 -10.59,-60.52 2.11,-37.76 -26.43,-35.17 -16.03,1.46 -15.69,-4.84 -31.63,-2.83 -22.32,2.81 -30.15,21.36 -88.57,6.45 -12.02,8.82 -8.98,13.46 -26,17.8 -0.89,-11.76 -4.22,-21.36 -6.5,-32.04 14.54,-23.78 36.43,-28.48 -38.99,-28.48 -8.59,17.78 -14.62,30.51 -9.75,53.4 -18.14,0.44 -39.6,11.61 -54.16,22.56 -21.73,16.35 -33.13,8.62 -55.88,-1.69 -33.68,-15.25 -24.8,-8.62 -62.19,-6.62 -56.57,3.02 -21.74,0.17 -47.88,11.63 -19.78,8.68 -15.79,-6.88 -34.05,23.23 -5.91,9.75 -11.5,15.45 -15.21,26.06 -22.32,63.78 -25.24,28.15 -46.91,69.64 -6.08,11.63 -9.41,15.67 -15.72,25.51 -16.2,25.26 -12.92,31.86 -16.92,45.55 -5.82,19.96 2.27,7.2 -8.55,11.99l0 24.92 58.87 24.51c17.53,11.7 27.14,34.63 28.87,57.37 21.81,0 19.62,-1.22 31.04,-8.96 29.94,-20.29 42.75,19.06 64.14,39.98 64.99,63.59 71.56,3.14 110.45,42.77 11.76,11.99 21.39,18.24 32.46,32.08 9.24,11.57 13.93,28.73 23.33,38.52 7.76,8.08 25.48,27.48 34.31,30.07l-1.75 -156.65z"/>
  <path class="fil6" d="M3165.6 1449.08l6.87 6.18c24.18,-7.56 66.81,7.11 93.65,12.27 8.73,1.68 23.86,2.16 34.05,5.41 7.99,2.55 2.66,1.57 12.05,4.61 6.33,2.04 8.41,2.21 15.55,4.32 6.75,1.99 19.46,5.54 27.68,8.84l37.65 19.28c52.8,31.66 31.68,74.07 -0.43,109.12 -3.38,3.68 -4.71,5.3 -8.19,8.83l-69.37 55.87c-2.32,1.45 -1.22,1.8 -6.77,3.81 -5.5,10.85 -93.34,61.54 -106.65,65.48 -5,14.16 -6.17,33.5 -9.72,48.39 -4.07,17.09 -9.36,30.22 -14.85,44.31 -5.91,15.17 -36.13,71.7 -37.14,78.1 30.17,-8.22 81.15,-40.71 109.04,-56.11 18.79,-10.37 33.6,-18.27 51.64,-29.07 12.88,-7.71 38.2,-26.58 53.79,-27.57 3.32,-8.43 7.37,-8.26 18.34,-14.42 4.79,-2.69 6.77,-4.08 10.51,-6.31 18.41,-10.97 117.65,-75.92 131.28,-91.15l65.4 -70.76c10.1,-13.04 17.67,-27.47 26.12,-42.59 17.58,-31.48 11.28,-76.97 -24.78,-100.57 -50.62,-33.15 -107.65,-30.09 -128.96,-36.72 -21.47,-6.69 -196.22,-9.01 -222.77,-4.61 -11.7,1.94 -19.2,1.29 -31.23,1.38 -17.12,0.13 -18.31,3.34 -32.76,3.68z"/>
  <path class="fil3" d="M2858.98 1636.04c-16.7,0.92 -97.21,21.21 -107.7,30.21 15.27,78.05 26.57,189.15 28.59,274.73l96.04 82.35c16.58,15.59 47.4,37.94 71.52,63.7 9.33,9.98 14.41,15.51 23.55,22.43 49.1,-55 69.85,-64.5 126.47,-144.26 42.88,-60.41 75.41,-102.88 89.54,-189.99 -0.08,-50.82 -2.28,-67.36 -25.29,-100.76 -12.93,-18.78 -48.61,-40.81 -79.05,-48.89 -38.72,-10.28 -199.36,-12.74 -223.67,10.48zm240.2 176.63c5.05,27.17 16.94,100.19 2.02,117.33 -11.26,12.93 -36.24,8.85 -47.14,-2.3 -8.77,-8.96 -15.89,-26.35 -22.4,-39.4 -11.68,3.1 -17.7,11.87 -33.38,8.24 -15.32,-3.54 -14.79,-12.91 -24.05,-22.19 -38.02,-3.1 -21.31,2.26 -41.18,17.41 -14.69,11.2 -28.52,0.71 -40.06,-3.85 -16.05,20.82 -21.67,58.34 -57.82,48.34 -29.43,-8.15 -19.1,-55.99 -14.84,-87.29 12.71,-93.31 7.09,-42.99 26.77,-83.68 7.63,-15.77 3.31,-26.58 26.35,-26.77 17.9,-0.15 22.77,13.12 29.12,22.68 -0.82,9.87 39.77,5.59 55.41,5.71 20,0.14 41.99,0.97 61.75,-0.04 6.53,-11.58 7.12,-22.53 18.15,-27.13 13.66,-5.69 27.59,-1.58 33.29,8.77 7.76,14.07 -2.14,8.4 14.98,30.14 7.22,9.15 11.77,18.64 13.03,34.03z"/>
  <path class="fil3" d="M2653.88 1594.72l-9.95 3.89c3.83,16.79 8.5,9.43 7.72,32.33l-96.59 -0.63c-0.9,-19.72 3.3,-15.39 4.4,-26.05 1.71,-16.51 -2.83,3.08 -5.24,-23.17 -1.45,-15.91 0,-50.92 0.74,-67.91l96.93 -0.92 1.99 82.46zm-114.78 -151.56c3.39,11.89 3.63,8.62 2.34,23.34l-98.2 -0.8c1.13,-5.65 6.13,-24.64 6.16,-24.92 1.75,-17.12 -2.49,1.34 -4.57,-23.57 -1.57,-18.75 0.07,-48.08 0.31,-67.79l96.79 -1.01 -0.28 75.43c-4.62,19.23 -1.57,-3.1 -8.14,14.56l5.59 4.76zm-197.7 -7.56c-17.04,31.3 -63.97,174.57 -66.69,216.41l114.78 49.59c18.78,8.78 100.99,53.88 112.18,52.06l114.22 -52.73c39.11,-15.9 82.71,-29.5 120.97,-46.1l-5.92 -24.83c-1.86,-44.83 -34.51,-147.66 -49.61,-188.01 -28.06,-74.99 -82.8,-185.05 -165.21,-183.71 -34.5,0.57 -62.73,13.28 -82.21,33.19 -9.6,9.8 -19.87,18.1 -28.41,29.4 -25.78,34.11 -47.54,74.93 -64.1,114.73z"/>
  <path class="fil3" d="M3139.98 1923.9l-95.6 125.46c-7.43,8.38 -12.84,14.98 -20.26,24.01 -8.3,10.11 -37.77,33.91 -42.98,48.59 10.54,11.07 19.24,20.41 29.6,30.43 14.81,-7.83 77.32,-21.78 98.77,-27.93 75.3,-21.57 172.5,-51.56 245.02,-80.82 20.45,-8.26 24.82,-8.41 42.17,-23.43l-16.65 -111.43c-2.16,-11.4 -3.31,-10.7 -5.86,-22.05 -3.59,-15.93 -4.38,-32.98 -9.99,-46.25l-2.98 -6.89c-1.19,-11.06 -2.43,-14.25 -6.77,-22.44 -15.59,0.99 -40.91,19.86 -53.79,27.57 -18.04,10.8 -32.85,18.7 -51.64,29.07 -27.89,15.4 -78.87,47.89 -109.04,56.11z"/>
  <path class="fil3" d="M2527.74 2688.75c-12.36,19.28 -16.2,34.35 -43.32,43.18 -33.92,11.04 -42.94,-4.28 -65.95,-11.14l-8.46 9.5c-31.57,4.18 -8.28,-19.2 -3.94,-28.01 -8.88,-23.17 -17.01,-37.3 -7.34,-67.96 14.98,-47.52 70.96,-68.31 111.34,-28.67l23.53 18.22c12.4,8.65 2.99,-4.79 12.2,7.72 5.43,11.3 -1.13,2.36 -2.41,12.01 -2.78,20.88 14.26,12.99 -10.15,25.27 -0.73,0.37 -2.02,0.74 -2.9,1.37l-2.6 18.51zm-242.75 33.55c10.11,46.13 34.52,100.61 56.28,142.88 35.63,69.22 103.41,127.79 177.6,93 53.32,-25 106.41,-111.78 128.8,-169.97 17.56,-43.94 60.49,-162.07 64.96,-214.09 -54.7,-25.79 -118.23,-47.06 -172.17,-76.6 -67.23,-36.83 -44.26,-29.85 -111.7,2.46 -48.16,23.07 -129.71,56.88 -178.35,71.59 6.01,45.5 20.96,108.67 34.58,150.73z"/>
  <path class="fil7" d="M2865.97 2580.68c14.27,14.3 157.06,7.54 166.53,4.08 12.4,-32.84 -2.01,-186.17 7.31,-230.83 4.2,-20.1 -5.11,-43.95 -2,-73.57 -20.2,-14.71 -41.31,-9.72 -79.83,-9.32 -26.52,0.27 -62.74,-5.86 -85.69,2.25 -21.84,11.26 -8.57,107.64 -8.59,140.61 -0.03,37.86 -3.93,135.7 2.27,166.78z"/>
  <path class="fil3" d="M1947.4 2537.97c-3.85,-15.93 0.3,-18.82 6.8,-35.76l35.36 0c8.23,-12.31 -1.13,-10.1 13.09,-15.74 6.86,-2.73 15.37,-1.34 22.89,-1.35l-0.22 -16.62 -71.19 -1.66c-2.21,-30.46 -5.65,-130.86 1.73,-153.05 11.29,-3.37 173.82,-8.35 202.77,-0.64 0.92,0.25 2.13,0.63 3.15,1.08 7.18,20.72 8.25,131.84 -3.24,151.42l-71.5 2.36c-0.03,10.11 0.78,12.2 3.26,17.12l26.1 0c3.99,23.23 -5.27,17.01 39.16,17.17l8.59 35.96 -216.75 -0.29zm-68.56 -263.61l-37.54 59.01c-41.27,72.18 -65.28,165.47 -6.86,229.13 59.05,64.35 220.17,54.41 310.39,26.28l90.6 -25.36c-1.06,-41.25 -23.36,-149.1 -25.66,-226.89 -1.14,-38.62 4.39,-46.05 -19.16,-64.46 -55.74,-43.56 -82.36,-71.9 -130.49,-113.51l-42.21 -41.84c-26.59,14.96 -119.3,125.98 -139.07,157.64z"/>
  <path class="fil6" d="M3364.2 1840.48l53.11 20.36c0.68,0.35 1.51,0.82 2.17,1.19 0.65,0.36 1.46,0.89 2.09,1.27 0.63,0.37 1.42,0.93 2.04,1.32 26.96,16.86 70.6,47.43 47.81,89.97 -7.54,14.06 -24.21,33.96 -37.97,43.87l-28.88 18.11c-7.75,4.47 -2.74,1.99 -7.87,3.64 -17.35,15.02 -21.72,15.17 -42.17,23.43 -72.52,29.26 -169.72,59.25 -245.02,80.82 -21.45,6.15 -83.96,20.1 -98.77,27.93 5.19,10.29 28.31,38.48 39.76,48.23 31.25,-3.04 141.06,-35.03 177.39,-46.14l169.14 -54.63 -0.28 18.55 2.2 -8.22c5.61,-23.5 1.6,-13.75 15.62,-18.47 8.79,-2.96 8.08,-2.92 14.24,-5.78 0.71,-0.33 1.54,-0.75 2.26,-1.08l6.96 -3.05c0.72,-0.33 1.58,-0.7 2.3,-1.04 18.81,-8.66 58.51,-24.53 72,-35.05l20.29 -13.38c24.83,-17.7 27.59,-19.92 45.38,-42.85 11.21,-14.45 15.76,-22.24 16.92,-31.31 1.59,-12.5 1.79,-33.83 -2.06,-43.98 -0.3,-0.77 -0.78,-1.63 -1.12,-2.35l-43.44 -44.97c-40,-28.68 -143.6,-33.28 -187.08,-33.28l2.98 6.89z"/>
  <path class="fil3" d="M1945.63 1936.01c-20.19,-20.86 -50.95,-16.07 -53.3,-41.56 15.51,-2.3 4.19,-2.47 19.29,6.48 24.85,14.74 109.03,59.22 127.06,58.18l-0.14 -57.82 -127.48 -48.97c-37.82,-14.12 -8.74,-8.47 -16.64,-31.68 -21.27,-62.5 6.42,-64.47 19.38,-75.74 -15.04,-13.1 -19.34,-39.27 -3.4,-55.07 16.35,-16.22 161.42,-11.49 188.94,-17.64 15.35,10.65 46.7,3.97 61.15,11.86 -4.93,5.85 3.63,1.16 -6.28,3.55l-61.53 -5.92c-26.69,-2.35 -43.53,2.42 -42,34.33 3.38,70.22 88.99,9.44 109.46,28.57 -16.16,8.73 -41.38,12.47 -58.42,16.26 -31.52,7.01 -33.52,3.18 -63.42,2.46 -13.87,-0.33 -22.77,3.82 -35.91,3.91 -24.12,0.16 -67.65,-12.62 -99.56,-10.31 -9.49,25.63 -18.67,59.24 16.87,68.42 20.23,5.23 55.82,16.54 75.37,19.67 18.24,2.93 49.9,-16.81 66.87,-24.7 23.39,-10.86 53.39,-29.82 63.91,-22.31 -4.54,14.01 -9.1,7.83 -19.37,18.39 20.02,7.95 27.31,3.1 41.69,20.78 8.47,50.7 -21.4,68.16 -42.72,87.74 -22.22,20.4 -38.28,35.66 -63.9,60.11 -20.95,-3.03 -67.81,-39.47 -95.92,-48.99zm189.25 -313.28c-213.96,-65.36 -408.07,8.2 -293.45,241.63 11.93,24.31 66.91,117.5 87.43,131.72 23.87,37.01 56.45,64.61 86.69,99.46 13.44,-7.85 30.5,-26.88 42.56,-37.36 12.58,-10.94 31.59,-28.22 45.12,-39.53 27.58,-23.07 60.22,-51.67 92,-73.68 27.75,-19.21 20.64,-16.17 25.63,-57.73 3.06,-25.54 6.41,-51.82 9.9,-76.62 7.34,-52.19 20.21,-101.56 26.64,-147.93 -15.94,-10.5 -99.99,-36.06 -122.52,-39.96z"/>
  <path class="fil3" d="M3037.81 2280.36c-3.11,29.62 6.2,53.47 2,73.57 -9.32,44.66 5.09,197.99 -7.3,230.83 -9.48,3.46 -152.27,10.22 -166.54,-4.08 -6.2,-31.08 -2.3,-128.92 -2.28,-166.78 0.03,-32.97 -13.24,-129.35 8.6,-140.61 22.95,-8.11 59.16,-1.98 85.69,-2.25 38.52,-0.4 59.63,-5.39 79.83,9.32zm-189.52 321.83c32.63,17.03 148.76,26.02 189.83,21.01 67.42,-8.23 108.47,-32.28 132.01,-87.1 26.44,-61.58 -7.63,-134.85 -28.82,-180.84 -27.7,-60.13 -46.27,-75.73 -75.37,-116.47 -7.8,-10.93 -4,-10.06 -15.33,-16.95 -1.79,-3.72 -2.03,-4.51 -5.85,-9.63 -0.61,-0.82 -2.6,-3.3 -3.28,-4.11 -3.31,-3.93 -2.72,-3.23 -5.93,-6.38 -6.1,4.88 -169.94,47.29 -188.27,35.54l-59.95 46.69c-24.1,16.82 -18.2,25.61 -25.65,86.13l-32.01 197.09c34.28,6.58 83.83,32.81 118.62,35.02z"/>
  <path class="fil2" d="M1947.4 2537.97l216.75 0.29 -8.59 -35.96c-44.43,-0.16 -35.17,6.06 -39.16,-17.17l-26.1 0c-2.48,-4.92 -3.28,-7.01 -3.26,-17.11l71.5 -2.37c11.49,-19.58 10.42,-130.7 3.24,-151.42 -1.02,-0.45 -2.23,-0.83 -3.15,-1.08 -28.95,-7.71 -191.48,-2.73 -202.77,0.64 -7.38,22.19 -3.94,122.59 -1.73,153.04l71.19 1.67 0.22 16.62c-7.52,0.01 -16.03,-1.37 -22.89,1.35 -14.22,5.64 -4.86,3.43 -13.09,15.74l-35.36 0c-6.5,16.94 -10.65,19.83 -6.8,35.76z"/>
  <path class="fil7" d="M3099.18 1812.66c-1.26,-15.38 -5.81,-24.87 -13.03,-34.02 -17.12,-21.74 -7.22,-16.07 -14.98,-30.14 -5.7,-10.35 -19.63,-14.46 -33.29,-8.77 -11.03,4.6 -11.62,15.55 -18.15,27.13 -19.76,1.01 -41.75,0.18 -61.75,0.04 -15.64,-0.12 -56.23,4.16 -55.41,-5.71 -6.35,-9.56 -11.22,-22.83 -29.12,-22.68 -23.04,0.19 -18.72,11 -26.35,26.77 -19.68,40.69 -14.07,-9.63 -26.77,83.68 -4.26,31.3 -14.59,79.14 14.84,87.29 36.15,10 41.77,-27.52 57.82,-48.34 11.54,4.56 25.37,15.05 40.06,3.85 19.87,-15.15 3.16,-20.51 41.18,-17.41 9.26,9.28 8.73,18.65 24.05,22.19 15.68,3.63 21.7,-5.14 33.38,-8.24 6.51,13.05 13.63,30.44 22.4,39.4 10.9,11.15 35.88,15.23 47.14,2.3 14.92,-17.14 3.03,-90.16 -2.02,-117.34z"/>
  <path class="fil7" d="M1945.63 1936.01c28.11,9.52 74.97,45.96 95.92,48.99 25.62,-24.45 41.68,-39.71 63.9,-60.11 21.32,-19.58 51.19,-37.04 42.72,-87.74 -14.38,-17.68 -21.66,-12.83 -41.69,-20.78 10.27,-10.56 14.83,-4.38 19.37,-18.39 -10.52,-7.51 -40.52,11.45 -63.91,22.31 -16.97,7.89 -48.63,27.63 -66.87,24.7 -19.55,-3.13 -55.14,-14.44 -75.37,-19.67 -35.54,-9.18 -26.36,-42.78 -16.87,-68.42 31.91,-2.31 75.44,10.47 99.56,10.31 13.14,-0.09 22.04,-4.24 35.91,-3.91 29.9,0.72 31.9,4.55 63.42,-2.46 17.04,-3.79 42.26,-7.53 58.42,-16.26 -20.47,-19.13 -106.08,41.65 -109.46,-28.57 -1.53,-31.91 15.31,-36.68 42,-34.33l61.53 5.92c9.91,-2.39 1.35,2.3 6.28,-3.54 -14.45,-7.9 -45.8,-1.22 -61.15,-11.87 -27.52,6.15 -172.59,1.42 -188.94,17.64 -15.93,15.8 -11.64,41.98 3.4,55.07 -12.96,11.27 -40.65,13.24 -19.38,75.74 7.9,23.21 -21.18,17.56 16.64,31.68l127.49 48.97 0.13 57.82c-18.03,1.04 -102.21,-43.44 -127.06,-58.18 -15.1,-8.95 -3.79,-8.78 -19.29,-6.48 2.35,25.49 33.11,20.7 53.3,41.56z"/>
  <polygon class="fil3" points="2879.87,2545.05 3020.54,2545.83 3021.29,2294.5 2880.5,2295.16 "/>
  <path class="fil3" d="M2246.74 2556.5c20.4,-1.05 94.74,-32.83 114.36,-41.61 36.07,-16.13 76.02,-38.35 110.23,-50.82l-13.24 -11.71c-5.54,-3.35 -11.37,-5.73 -17.67,-9.08l-218.73 -145.76c-4.78,71.35 18.36,187.58 25.05,258.98z"/>
  <path class="fil3" d="M2515.39 1767.16c52.56,22.23 133.79,81.4 186.03,116.11 19.17,12.73 43.71,34.91 63.99,43.66 -3.7,-88.9 -14,-172.65 -26.12,-257.29 -20.51,1.2 -93.09,33.04 -116,43.11 -18.91,8.3 -37.16,16 -55.36,24.49 -16.89,7.87 -43.43,17.46 -52.54,29.92z"/>
  <path class="fil3" d="M2232.12 1915.8l214.83 -132.97c14.09,-7.72 24.49,-10.47 31.57,-22.15 -33.59,-9.99 -140.47,-75.31 -208.69,-94.32 -12.66,73.52 -36.3,171.59 -37.71,249.44z"/>
  <path class="fil6" d="M2701.25 2009.39c-38.01,26.02 -219.3,74.99 -272.42,72.2 -27.8,-61.78 -107.16,-28.27 -100.71,32.72 2.53,23.92 22.41,49.49 48.14,49.22 23.76,-0.25 44.34,-19.87 55.26,-39.55 21.22,-2.34 52.78,-5.17 71.55,-5.5 23.75,-0.42 42.4,-5.43 68.16,-8.71 29.56,-3.76 103.07,-24.61 126.77,-20.03 13.13,-9.88 2.26,-3.49 16.31,-7.12 9.65,-2.5 6.68,-1.56 15.36,-4.3 12.76,-4.03 23.62,-6.2 38.61,-6.2l-0.32 -89c-8.1,1.88 -7.95,5.48 -16.32,9.05l-50.39 17.22z"/>
  <path class="fil3" d="M2507.05 2462.83c37.91,21.35 172.61,89.78 209.84,96.51 12.1,-71.46 36.74,-172.87 37.59,-248.41l-184.19 116.35c-14.73,8.2 -48.93,23.67 -63.24,35.55z"/>
  <polygon class="fil3" points="1966.79,2449.52 2148.81,2450.1 2148.81,2328.44 1966.79,2328.35 "/>
  <path class="fil3" d="M2783.34 2064.48l-5.18 142.95c19.69,-1.34 30.95,-10.34 53.06,-10.75 15.75,-0.29 18.97,2.06 31.37,-3.7l23.49 -8.13c6.96,-2.16 66.67,-52.56 72.48,-66.45 -12.31,-14.44 -29.33,-28.6 -42.86,-42.55 -12.35,-12.75 -30.97,-29.23 -46.61,-40.73l-85.75 29.36z"/>
  <path class="fil6" d="M2504.98 2243.01c-14.15,8.08 -75.33,3.88 -95.15,2.18 -24.81,-2.13 -22.99,1.32 -34.44,-15.36 -7.86,-11.46 -16.44,-18.4 -31.51,-18.15 -29.41,0.49 -45.5,37.33 -29.76,63.95 25.55,43.23 65.31,-0.7 65.41,-0.73 17.98,0.95 118.7,2.71 124.99,7.28 44.92,0 142.59,-8.3 191.49,-16.42 15.76,-2.62 49.35,-4.95 64.22,-4.95l3.55 -56.96c-32.18,14.86 -150.05,26 -189.08,32.25 -16.66,2.66 -57.96,1.88 -69.72,6.91z"/>
  <path class="fil2" d="M1862.93 2316.66c-5.08,22.49 -3.91,132 -2.34,165 1.91,40.02 2.13,35.49 50.97,35.53 39.11,0.03 37.09,8.27 36.83,-78.36 -0.1,-34.34 3.1,-89.19 -1.21,-120.94 -20.89,-6.2 -61.23,-3.15 -84.25,-1.23z"/>
  <path class="fil7" d="M2410.01 2730.29l8.46 -9.5c23.01,6.86 32.03,22.18 65.95,11.14 27.12,-8.83 30.96,-23.9 43.32,-43.18l2.6 -18.51c0.88,-0.63 2.17,-1 2.9,-1.37 24.41,-12.29 7.37,-4.39 10.15,-25.27 1.28,-9.65 7.84,-0.71 2.41,-12.01 -9.21,-12.51 0.2,0.93 -12.2,-7.72l-23.53 -18.22c-40.38,-39.64 -96.36,-18.84 -111.34,28.67 -9.67,30.66 -1.55,44.79 7.34,67.96 -4.34,8.81 -27.63,32.19 3.94,28.01z"/>
  <path class="fil7" d="M2653.88 1594.72l-1.99 -82.46 -96.93 0.92c-0.74,16.99 -2.19,52 -0.74,67.91 2.41,26.25 6.95,6.66 5.24,23.17 -1.1,10.66 -5.3,6.33 -4.39,26.05l96.58 0.63c0.78,-22.9 -3.89,-15.54 -7.72,-32.33l9.95 -3.89z"/>
  <path class="fil7" d="M2336.49 1630.78l95.56 0.12c1.26,-16.12 -1.32,-18.86 -7.13,-28.73 5.99,-11.77 8.91,0.95 8.18,-39.12 -0.31,-16.98 -0.17,-33.24 -1.09,-50.3l-95.04 -0.08c-2.59,22.06 -4.8,59.84 1.57,80.61 7.08,23.07 -4.37,6.52 -2.05,37.5z"/>
  <path class="fil7" d="M2443.24 1465.7l98.19 0.8c1.3,-14.72 1.06,-11.45 -2.33,-23.34l-5.59 -4.76c6.57,-17.66 3.52,4.67 8.14,-14.56l0.28 -75.43 -96.79 1.01c-0.24,19.71 -1.88,49.04 -0.31,67.79 2.08,24.91 6.32,6.45 4.57,23.57 -0.03,0.28 -5.03,19.27 -6.16,24.92z"/>
  <path class="fil8" d="M2562.08 2586.45l-9.83 23.01c3.91,3.32 13.13,11.06 13.79,18.85 0.65,7.59 -1.2,6.82 -7.22,13.99 -6.66,7.93 0.15,-2.32 -5.5,6.58l7.92 21.99 26.31 -1 5.82 24.52 23.36 1.79c7.95,-13.54 0.07,-15.6 13.15,-21.68 7.53,-3.5 14.28,0.67 22.63,1.52l8.47 -25.03c-5.84,-9.17 -7.86,-8.24 -7.48,-16.25 0.46,-9.78 7.07,-11.38 13.41,-15.77l-8.98 -25.89c-41.14,0.75 -20.58,2.44 -34.67,-22.9l-22.83 4.13c-14.86,26.96 -5.49,16.08 -38.35,12.14z"/>
  <path class="fil3 str2" d="M2494.45 2663.12c-1.89,-19.36 1.54,-2.64 1.76,-18.28 0.24,-17.53 -6.3,-4.83 2.99,-25.57 0.24,-0.54 1.01,-1.54 1.24,-2.43 -54.3,-46.17 -111.77,15.85 -84.03,73.2 9.15,18.93 35.06,37.63 66.03,25.71 12.37,-4.76 22.5,-15.29 27.06,-24.59 13.82,-28.2 -14.74,-27.95 -15.05,-28.04z"/>
  <path class="fil8" d="M2895.09 2402.03c-5.34,17.61 -6.86,56.3 -0.35,73.94l99.09 1.11c17.95,-3.03 15.08,-4.33 14.89,-49.21 -0.12,-26.63 -2.13,-21.19 -14.67,-32.46 -0.86,-0.77 -2.05,-1.62 -2.87,-2.66l10.34 -8.2c-15.92,8.14 -4.41,18.05 -43.46,17.44 -20.42,-0.32 -42.69,-1.36 -62.97,0.04z"/>
  <polygon class="fil5" points="3013.23,3930.56 3399.95,3930.56 3399.95,3909.2 3013.23,3909.2 "/>
  <polygon class="fil5" points="1583.34,3930.56 1970.06,3930.56 1970.06,3909.2 1583.34,3909.2 "/>
  <path class="fil6" d="M2847.28 2237.26c18.33,11.75 182.17,-30.66 188.27,-35.54 -47.24,-55.13 -27.85,-49.5 -85.08,-35.28 -37.05,9.19 -33.35,12.24 -70.92,44.04 -10.62,8.98 -20.06,18.99 -32.27,26.78z"/>
  <path class="fil3" d="M2041.43 1897.49l-0.22 64.27 87.91 -74.89c11.75,-12.19 13.68,-30.35 8.61,-48.67 -16.12,-2.71 -35.62,16.77 -48.78,25.94 -17.17,11.97 -31.49,23.61 -47.52,33.35z"/>
  <path class="fil3" d="M2344.94 1580.19c15.78,3.82 63.11,3.93 78.29,-0.7l0.64 -57.84c-13.41,-4.21 -64.65,-3.95 -79.04,-1.06l0.11 59.6z"/>
  <polygon class="fil3" points="2564.08,1581.78 2642.37,1581.94 2642.81,1520.19 2564.32,1519 "/>
  <polygon class="fil3" points="2454.25,1416.76 2532.32,1417.7 2532.54,1356.05 2454.71,1355.53 "/>
  <path class="fil6 str2" d="M2783.34 2064.48l85.75 -29.36c-2.89,-5.44 -32.33,-29.18 -37.99,-34.06 -15.17,-13.06 -24.17,-27.36 -47.6,-24.42 -3.74,19.14 -2.07,67.17 -0.16,87.84z"/>
  <path class="fil4" d="M2365.03 2073.35c-14.25,9.61 -27.09,23.18 -16.53,50.55 6.16,15.96 25.34,29.02 46.81,18.99 45.31,-21.15 13.37,-98.97 -30.28,-69.54z"/>
  <path class="fil4" d="M2333.99 2231.45c-28.63,15.46 -7.43,60 20.5,44.95 25.04,-13.5 7.42,-60.02 -20.5,-44.95z"/>
  <path class="fil9" d="M4097.88 2618.49c203.31,0 368.13,174.59 368.13,389.97 0,215.38 -164.82,389.97 -368.13,389.97 -203.31,0 -368.13,-174.59 -368.13,-389.97 0,-215.38 164.82,-389.97 368.13,-389.97z"/>
  <path class="fil10" d="M883.18 1165.93c143.3,0 259.47,123.06 259.47,274.87 0,151.81 -116.17,274.87 -259.47,274.87 -143.3,0 -259.47,-123.06 -259.47,-274.87 0,-151.81 116.17,-274.87 259.47,-274.87z"/>
  <path class="fil11" d="M1567.85 609.41c213.69,0 386.92,183.5 386.92,409.87 0,226.37 -173.23,409.87 -386.92,409.87 -213.69,0 -386.92,-183.5 -386.92,-409.87 0,-226.37 173.23,-409.87 386.92,-409.87z"/>
 </g>
</svg>
