<?xml version="1.0" encoding="UTF-8"?>
<!DOCTYPE svg PUBLIC "-//W3C//DTD SVG 1.1//EN" "http://www.w3.org/Graphics/SVG/1.1/DTD/svg11.dtd">
<!-- Creator: CorelDRAW -->
<svg xmlns="http://www.w3.org/2000/svg" xml:space="preserve" width="50mm" height="50mm" version="1.1" style="shape-rendering:geometricPrecision; text-rendering:geometricPrecision; image-rendering:optimizeQuality; fill-rule:evenodd; clip-rule:evenodd"
viewBox="0 0 5000 5000"
 xmlns:xlink="http://www.w3.org/1999/xlink"
 xmlns:xodm="http://www.corel.com/coreldraw/odm/2003">
 <defs>
  <style type="text/css">
   <![CDATA[
    .fil5 {fill:#06A1E2}
    .fil0 {fill:#165597}
    .fil4 {fill:#2CB2E2}
    .fil3 {fill:#43B5E2}
    .fil7 {fill:#CAE9F0}
    .fil6 {fill:#F6F6F6}
    .fil2 {fill:#FACB0A}
    .fil1 {fill:white}
   ]]>
  </style>
 </defs>
 <g id="Camada_x0020_1">
  <metadata id="CorelCorpID_0Corel-Layer"/>
  <path class="fil0" d="M3456.47 1964.37c-19.75,-16.81 -59.64,-65.46 -68.6,-83.21 -17.88,-17.3 -32.89,-33.41 -51.08,-52.51 9,-25.34 59.84,-66.4 74.17,-83.84 12.81,-15.59 22.13,-26.99 34.96,-41.44l164.97 -216.49c1.73,-11.04 53.89,-108.59 64.08,-134.76 9.46,-24.31 18.6,-46.97 25.63,-76.46 6.12,-25.69 8.13,-59.07 16.76,-83.51 -11.02,-97.03 -30.5,-151.74 -95.54,-192.63 -128.45,-80.76 -318.79,-68.88 -462.29,-39.57l-221.59 54.2c-13.76,-33.82 -19.57,-78.45 -29.05,-117.86 -10.24,-42.56 -19.42,-76.58 -29.92,-114.75 -45.69,-166.1 -164.44,-481.72 -361.8,-471.04 -145.83,7.9 -242.38,201.75 -300.45,328.5l-58.75 151.01c-24.02,68.37 -41.78,144.85 -63.62,219.07 -55.73,-6.13 -226.3,-89.28 -429.34,-94.15 -167.39,-4 -315.53,19.25 -363.71,165.12 -49.51,149.91 68.63,336.17 117.9,421.5 68.04,117.84 145.42,192.95 222.66,284.93 13.51,16.1 4.82,-0.87 11.69,17.6 -18.45,19.46 -43.47,47.86 -64.55,70.27l-96.3 109.79c-90.89,103.64 -249.4,354.27 -211.1,517.48 78.81,335.76 699.95,117.15 774.63,113.53 35.34,194.83 169.68,728.67 422.15,701.69 97.42,-10.41 176.08,-114.26 226.63,-195.45 7.8,-12.52 17.81,-27.83 27.07,-44.3l166.61 -458.68c52.32,10.47 122.07,38.81 179.67,53.71 172.08,44.5 425.43,81.54 559.1,-40.27 112.46,-102.49 46.27,-269.78 4.2,-375.86 -46.87,-118.17 -121.02,-198.92 -185.19,-291.62z"/>
  <path class="fil1" d="M4053.94 1822.51l0.49 -32.01 -291.86 94.26c-62.69,19.18 -252.17,74.37 -306.1,79.61 64.17,92.7 138.32,173.45 185.19,291.62 42.07,106.08 108.26,273.37 -4.2,375.86 -133.67,121.81 -387.02,84.77 -559.1,40.27 -57.6,-14.9 -127.35,-43.24 -179.67,-53.71l-166.61 458.68c-9.26,16.47 -19.27,31.78 -27.07,44.3 -50.55,81.19 -129.21,185.04 -226.63,195.45 -252.47,26.98 -386.81,-506.86 -422.15,-701.69 -74.68,3.62 -695.82,222.23 -774.63,-113.53 -38.3,-163.21 120.21,-413.84 211.1,-517.48l96.3 -109.79c21.08,-22.41 46.1,-50.81 64.55,-70.27 -6.87,-18.47 1.82,-1.5 -11.69,-17.6 -77.24,-91.98 -154.62,-167.09 -222.66,-284.93 -49.27,-85.33 -167.41,-271.59 -117.9,-421.5 48.18,-145.87 196.32,-169.12 363.71,-165.12 203.04,4.87 373.61,88.02 429.34,94.15 21.84,-74.22 39.6,-150.7 63.62,-219.07l58.75 -151.01c58.07,-126.75 154.62,-320.6 300.45,-328.5 197.36,-10.68 316.11,304.94 361.8,471.04 10.5,38.17 19.68,72.19 29.92,114.75 9.48,39.41 15.29,84.04 29.05,117.86l221.59 -54.2c143.5,-29.31 333.84,-41.19 462.29,39.57 65.04,40.89 84.52,95.6 95.54,192.63 22.97,-6.78 174.54,-94.26 184.04,-112.99 -0.1,-27.5 -11.68,-37.35 -20.25,-56.52 -22.18,-49.65 -141.79,-258.05 -171.28,-291.54 -10.35,-11.76 -34.1,-29.74 -42.94,-52.89l-11.84 -10.65 -17.8 -22.77c-81.64,-100.56 -200.76,-209.73 -306.43,-278.68 -82,-53.49 -167.73,-101.46 -255.92,-143.53 -101.03,-48.2 -270.11,-98.33 -378.54,-107.48 -33.61,-2.83 -44.35,-5.27 -74.66,-10.35 -104.52,-17.55 -332.61,3.71 -444.74,30.19 -13.5,3.18 -15.49,6.13 -34.79,11.03 -90.43,22.95 -171.09,56.68 -258.66,91.38 -101.62,40.27 -186.78,108.05 -278.54,167.88l-188.14 168.63 -215.75 279.68c-71.24,97.02 -141.18,276.49 -187.34,415.24 -46.99,141.24 -88.2,421.12 -83.57,572.34l11.09 129.2c1.12,16.05 -0.4,31.69 1.09,47.95 13.41,146.08 55.6,317.08 109.39,451.49l131.26 273.95c44.63,76.76 112.09,176.15 172.07,241.53 15.48,16.87 26.74,29.11 42.14,45.98l63.36 65.75c73.69,67.88 147.05,129.39 229.18,185.1l135.1 79.3c72.41,39.88 147.3,67.67 222.77,93.82 185.94,64.43 432.13,87.7 625.25,61.28 220.91,-30.23 454.96,-108.5 640.76,-244.11 17.31,-12.64 34.09,-21.81 51.33,-35.91l191.24 -165.23 202.79 -250.88c75.96,-115.31 136.47,-236.27 185.1,-368.55 34.73,-94.47 59.2,-192.95 80.58,-292.61 6.24,-29.07 9.13,-45.19 13.34,-77.53 7.84,-60.1 16.26,-111.44 15.78,-173.18l0.11 -85.96z"/>
  <path class="fil1" d="M3638.93 4187.71c19.07,-8.5 6.51,-2.13 21.85,-13.12l267.35 -241.35c26.18,-22.46 46.68,-38.95 72.92,-61.4 25.31,-21.67 41.68,-46.21 62.38,-72.97 18.25,-23.61 36.01,-58.06 51.1,-85.31 52.65,-95.07 79.85,-196.15 120.35,-298.19l72.06 -203.64c50.01,-143.83 145.56,-412.75 145.08,-553.7l-0.01 -282.62c0.11,-54.33 -6.09,-83.39 -5.58,-135.19 0.65,-66.05 -8.52,-140.53 -11.28,-196.52 -1.17,-23.83 1.23,-49.94 0.06,-73.78l-5.6 -135.16c1.33,-281.84 -129.39,-130.62 -143.54,-58.88l-75.2 771.55c74.88,19.11 113.31,75.02 106.08,152.63 -5.09,54.67 -22.05,65.67 -55.57,117.72 -57.98,90.06 -112.54,183.9 -153.08,286.9 -79.86,202.86 2.1,77.66 -167.75,270.93 -23.69,26.96 -24.8,24.78 -54.92,7.32 0,-39.15 4.31,-33.24 46.18,-84.57 9.68,-11.86 18.31,-24.9 27.5,-37.45 56.97,-77.71 97.21,-170.69 140.58,-257.6 41.65,-83.49 79.06,-186.13 128.09,-271.27 9.26,-16.07 22.89,-23.57 22.43,-49.54 -0.98,-55.16 -93.87,-79.97 -175.25,-25.73 -47.29,31.52 -94.2,68.16 -132.88,112.45 -96.13,110.02 -154.25,190.55 -224.6,325.28 -71.69,137.31 -89,228.77 -275.34,245.11 -112.85,9.9 -85.08,-11.47 -225.27,29.65 -37.01,10.86 -96.01,39.86 -128.81,61.62 -50.08,33.24 -60.41,34.64 -112.51,85.62 -170.57,166.9 -238.28,300.28 -322.2,543.93 -7.61,22.1 -9.27,35.76 -18.39,59.71 -2.37,64.65 -69.4,197.36 -35.13,486.92l1.46 330.15c54.32,28.55 249.05,12.28 330.85,12.28 114.02,0 228.04,0 342.06,0l-5.61 -141.3c0.01,-53.1 -0.57,-96.8 5.16,-141.79 39.21,-308.25 306.84,-381.87 363.6,-475.91 0.25,-0.42 1.08,-1.78 1.38,-2.78z"/>
  <path class="fil1" d="M2349.12 4120.14c-27.61,-72.5 -29.12,-106.25 -69.11,-200.72 -98.54,-232.8 -276.67,-476.46 -508.39,-548.85 -32.13,-10.04 -65.69,-17.96 -100.92,-24.58 -61.94,-11.65 -155.19,4.67 -227.8,-26.9 -40.86,-17.76 -87.79,-52.87 -108.61,-89.88 -37.15,-66.04 -66.17,-138.92 -114.8,-218.27l-103.91 -156.46c-52.65,-76.37 -199.45,-227.48 -297.34,-227.74 -51.2,-0.13 -114.16,25.8 -66.53,98.03l108.54 225.13c64.56,140.56 93.76,210.69 190.29,344.43 39.69,54.99 48.1,44.31 48.1,88.6 -40.18,23.29 -30.87,18.39 -93.92,-50.68 -113.14,-123.95 -69.34,-71.28 -127.1,-223.23 -14.23,-37.44 -37.58,-88.65 -56.09,-122.84l-96.35 -164.76c-37.03,-58.7 -80.92,-105.89 -47.2,-194.22 31.41,-82.27 74.9,-58.43 89.81,-85.91 4.95,-9.12 -4.06,-110.55 -4.75,-117.67l-19.3 -249.16c-4.15,-36.29 -11.36,-86.64 -14.69,-125.2 -7.31,-84.86 -17.53,-166.03 -27.47,-246.36 -12.76,-103.09 -83.05,-154.03 -117.59,-120.76 -40.36,38.88 -25.34,159.16 -29.26,238.69 -1.35,27.33 -5.51,29.48 -5.86,61.17l-7.75 200.38c-11.52,83.41 -14.45,490.73 -7.55,541.79 10.81,80.06 51.11,192.71 69.3,261.97 6.38,24.31 7.35,29.6 15.14,50.98l67.72 202.27c6.79,22.36 10.77,27.89 18.04,47.8l53.61 150.15c48.85,133.93 121.6,346.1 229.06,437.11 75.28,63.76 170.71,143.98 242.4,213.61 21.21,20.59 14.82,19.24 43.61,32.08 0.63,10.89 5.49,12.25 32.35,38.3l128.67 110.93c137.35,113.23 223.83,153.87 270.92,366.68 13.73,62.02 12.15,159.59 11.32,233.82 -0.4,34.94 -5.84,42.35 -5.84,79.62 114.03,0 228.05,0 342.07,0 81.8,0 276.52,16.27 330.85,-12.28l1.49 -330.11c11.89,-99.81 16.74,-215.32 -0.89,-309.46 -5.8,-30.96 -10.96,-64.61 -15.92,-93.14 -4.86,-27.97 -17.6,-63.66 -18.35,-84.36z"/>
  <path class="fil1" d="M2514.36 2105.11c-10.86,-7.88 -184.65,-10.92 -215.69,-12.56 -0.16,0.06 -68.77,75.85 -112.86,1.26 -27.15,-45.94 0.6,-109.5 51.35,-110.35 26,-0.43 40.82,11.55 54.38,31.32 19.75,28.79 16.62,22.84 59.43,26.51 34.19,2.94 139.76,10.17 164.18,-3.76l2.34 -208.88 336.34 0c-1.42,-3.24 -4.21,-10.86 -5.06,-12.88 -11.25,-26.63 -11.22,-15.86 -11.76,-42.41l11.21 -0.32c-40.89,-7.89 -167.74,28.09 -218.74,34.57 -44.46,5.66 -76.63,14.31 -117.63,15.03 -32.38,0.57 -86.84,5.46 -123.45,9.49 -18.84,33.95 -54.36,67.82 -95.35,68.25 -44.41,0.47 -78.72,-43.66 -83.08,-84.93 -11.13,-105.24 125.82,-163.07 173.78,-56.47 91.66,4.82 404.48,-79.68 470.08,-124.58 0,-84.45 17.04,-71.98 11.88,-101.48 -18.26,-104.43 3.65,-65.15 -45.59,-60.68 -27.67,2.51 -27.09,-8.35 -54.59,-4.89 -38.52,4.84 -52.03,36.86 -152.83,11.13 -20.74,15.22 -15.51,23.23 -44.86,30.72 -1.54,-20.3 -7.29,-36.86 -11.21,-55.29 25.07,-41.03 62.85,-49.15 -67.3,-49.15 -14.81,30.68 -25.22,52.64 -16.82,92.15 -31.31,0.77 -68.33,20.04 -93.45,38.93 -37.5,28.21 -57.16,14.87 -96.43,-2.92 -58.11,-26.31 -42.8,-14.88 -107.31,-11.43 -97.61,5.23 -37.51,0.31 -82.62,20.08 -34.12,14.97 -27.25,-11.87 -58.75,40.08 -10.2,16.83 -19.84,26.67 -26.24,44.96 -38.52,110.07 -43.56,48.58 -80.96,120.18 -10.48,20.07 -16.23,27.04 -27.12,44.02 -27.96,43.59 -22.3,54.97 -29.19,78.6 -10.04,34.43 3.91,12.42 -14.77,20.68l0 43 101.59 42.3c30.25,20.19 46.84,59.75 49.82,99 37.64,0 33.85,-2.12 53.56,-15.47 51.66,-35.01 73.77,32.89 110.67,68.99 112.15,109.73 123.49,5.42 190.59,73.8 20.3,20.69 36.92,31.48 56.01,55.37 15.95,19.95 24.05,49.57 40.27,66.46 13.38,13.93 43.96,47.42 59.19,51.88l-3.01 -270.31z"/>
  <path class="fil2" d="M3655.09 667.56l11.84 10.65c41.73,-13.04 115.29,12.28 161.61,21.18 15.07,2.9 41.17,3.72 58.76,9.34 13.79,4.39 4.58,2.7 20.79,7.95 10.92,3.53 14.5,3.82 26.83,7.46 11.65,3.43 33.57,9.56 47.77,15.25l64.96 33.26c91.1,54.64 54.66,127.82 -0.75,188.31 -5.81,6.35 -8.13,9.14 -14.13,15.23l-119.7 96.4c-4,2.5 -2.09,3.12 -11.67,6.57 -9.5,18.73 -161.07,106.21 -184.04,112.99 -8.63,24.44 -10.64,57.82 -16.76,83.51 -7.03,29.49 -16.17,52.15 -25.63,76.46 -10.19,26.17 -62.35,123.72 -64.08,134.76 52.06,-14.18 140.03,-70.25 188.14,-96.81 32.42,-17.9 57.99,-31.54 89.12,-50.18 22.22,-13.3 65.91,-45.86 92.81,-47.57 5.72,-14.54 12.71,-14.24 31.64,-24.88 8.26,-4.64 11.68,-7.03 18.14,-10.88 31.76,-18.94 203.01,-131 226.53,-157.29l112.85 -122.1c17.42,-22.51 30.5,-47.41 45.07,-73.49 30.34,-54.33 19.46,-132.81 -42.75,-173.54 -87.35,-57.19 -185.76,-51.91 -222.54,-63.37 -37.03,-11.53 -338.59,-15.54 -384.39,-7.95 -20.2,3.35 -33.13,2.23 -53.89,2.39 -29.54,0.22 -31.59,5.76 -56.53,6.35z"/>
  <path class="fil3" d="M3126 990.17c-28.81,1.58 -167.74,36.6 -185.85,52.13 26.36,134.68 45.86,326.39 49.33,474.05l165.73 142.11c28.6,26.9 81.8,65.46 123.41,109.92 16.11,17.21 24.86,26.76 40.64,38.69 84.72,-94.9 120.53,-111.3 218.23,-248.92 74,-104.25 130.13,-177.53 154.52,-327.83 -0.15,-87.7 -3.95,-116.24 -43.65,-173.87 -22.32,-32.41 -83.88,-70.42 -136.4,-84.37 -66.82,-17.73 -344.02,-21.98 -385.96,18.09zm414.48 304.77c8.71,46.89 29.23,172.9 3.48,202.47 -19.43,22.31 -62.53,15.27 -81.34,-3.97 -15.13,-15.47 -27.42,-45.47 -38.65,-67.98 -20.15,5.35 -30.54,20.47 -57.61,14.21 -26.43,-6.11 -25.51,-22.27 -41.49,-38.29 -65.61,-5.34 -36.78,3.9 -71.06,30.04 -25.35,19.32 -49.21,1.23 -69.13,-6.63 -27.69,35.91 -37.38,100.66 -99.76,83.4 -50.78,-14.05 -32.96,-96.61 -25.61,-150.61 21.92,-161.02 12.23,-74.2 46.2,-144.41 13.16,-27.21 5.7,-45.85 45.47,-46.19 30.88,-0.26 39.28,22.64 50.23,39.14 -1.42,17.04 68.63,9.65 95.62,9.84 34.51,0.26 72.46,1.68 106.55,-0.06 11.27,-19.98 12.29,-38.88 31.32,-46.81 23.57,-9.82 47.62,-2.72 57.45,15.12 13.39,24.29 -3.7,14.51 25.85,52.01 12.45,15.8 20.3,32.18 22.48,58.72z"/>
  <path class="fil4" d="M2772.08 918.87l-17.17 6.71c6.62,28.97 14.68,16.26 13.32,55.79l-166.65 -1.1c-1.56,-34.01 5.68,-26.54 7.58,-44.94 2.95,-28.49 -4.88,5.31 -9.03,-39.99 -2.52,-27.45 -0.01,-87.86 1.26,-117.17l167.26 -1.59 3.43 142.29zm-198.06 -261.53c5.85,20.52 6.27,14.87 4.04,40.27l-169.44 -1.38c1.94,-9.75 10.58,-42.52 10.63,-43 3.01,-29.54 -4.3,2.31 -7.9,-40.67 -2.7,-32.36 0.13,-82.96 0.55,-116.98l167.01 -1.74 -0.48 130.16c-7.98,33.18 -2.72,-5.35 -14.04,25.12l9.63 8.22zm-341.14 -13.05c-29.4,54.01 -110.38,301.23 -115.07,373.44l198.06 85.56c32.4,15.16 174.26,92.98 193.56,89.84l197.11 -90.99c67.48,-27.43 142.72,-50.91 208.73,-79.54l-10.21 -42.86c-3.21,-77.35 -59.56,-254.79 -85.6,-324.42 -48.42,-129.4 -142.88,-319.32 -285.08,-316.99 -59.54,0.97 -108.24,22.91 -141.86,57.25 -16.56,16.93 -34.28,31.24 -49.02,50.74 -44.49,58.87 -82.04,129.29 -110.62,197.97z"/>
  <path class="fil1" d="M3610.89 1486.88l-164.97 216.49c-12.83,14.45 -22.15,25.85 -34.96,41.44 -14.33,17.44 -65.17,58.5 -74.17,83.84 18.19,19.1 33.2,35.21 51.08,52.51 25.55,-13.51 133.41,-37.59 170.43,-48.19 129.93,-37.23 297.66,-88.97 422.79,-139.47 35.29,-14.25 42.84,-14.51 72.77,-40.43l-28.72 -192.27c-3.74,-19.67 -5.71,-18.46 -10.12,-38.06 -6.19,-27.49 -7.56,-56.9 -17.23,-79.81l-5.15 -11.89c-2.05,-19.07 -4.2,-24.58 -11.68,-38.72 -26.9,1.71 -70.59,34.27 -92.81,47.57 -31.13,18.64 -56.7,32.28 -89.12,50.18 -48.11,26.56 -136.08,82.63 -188.14,96.81z"/>
  <path class="fil5" d="M2554.43 2806.68c-21.33,33.26 -27.96,59.27 -74.75,74.5 -58.54,19.05 -74.1,-7.37 -113.8,-19.23l-14.6 16.41c-54.48,7.2 -14.3,-33.13 -6.81,-48.33 -15.32,-39.99 -29.34,-64.37 -12.66,-117.27 25.85,-82 122.45,-117.88 192.13,-49.47l40.6 31.43c21.39,14.93 5.16,-8.27 21.06,13.33 9.36,19.5 -1.96,4.06 -4.17,20.72 -4.79,36.02 24.6,22.4 -17.51,43.6 -1.27,0.64 -3.49,1.28 -5.01,2.37l-4.48 31.94zm-418.89 57.89c17.46,79.6 59.57,173.6 97.12,246.54 61.48,119.45 178.45,220.51 306.45,160.49 92.01,-43.14 183.63,-192.89 222.26,-293.3 30.31,-75.83 104.38,-279.67 112.09,-369.43 -94.38,-44.49 -204.02,-81.19 -297.09,-132.18 -116,-63.55 -76.37,-51.5 -192.73,4.25 -83.11,39.82 -223.84,98.15 -307.77,123.53 10.38,78.52 36.18,187.51 59.67,260.1z"/>
  <path class="fil6" d="M3138.06 2620.19c24.63,24.68 271.02,13.01 287.37,7.05 21.38,-56.67 -3.49,-321.26 12.6,-398.32 7.24,-34.68 -8.83,-75.83 -3.45,-126.95 -34.86,-25.38 -71.29,-16.76 -137.75,-16.08 -45.77,0.47 -108.26,-10.11 -147.87,3.88 -37.68,19.44 -14.78,185.75 -14.83,242.64 -0.05,65.33 -6.77,234.15 3.93,287.78z"/>
  <path class="fil5" d="M1553.01 2546.49c-6.63,-27.49 0.52,-32.47 11.74,-61.7l61.01 0c14.21,-21.23 -1.94,-17.42 22.59,-27.16 11.84,-4.7 26.52,-2.32 39.5,-2.32l-0.37 -28.69 -122.84 -2.87c-3.82,-52.56 -9.77,-225.8 2.98,-264.09 19.47,-5.82 299.93,-14.42 349.88,-1.1 1.6,0.43 3.68,1.08 5.44,1.87 12.39,35.74 14.23,227.48 -5.58,261.28l-123.39 4.07c-0.04,17.43 1.36,21.04 5.63,29.53l45.03 0c6.9,40.1 -9.08,29.36 67.58,29.63l14.83 62.06 -374.03 -0.51zm-118.29 -454.86l-64.79 101.82c-71.21,124.54 -112.64,285.52 -11.83,395.38 101.89,111.04 379.91,93.88 535.6,45.34l156.33 -43.76c-1.82,-71.19 -40.32,-257.29 -44.27,-391.51 -1.97,-66.64 7.56,-79.47 -33.08,-111.23 -96.18,-75.17 -142.11,-124.06 -225.17,-195.87l-72.83 -72.19c-45.88,25.8 -205.86,217.39 -239.96,272.02z"/>
  <path class="fil2" d="M3997.79 1342.93l91.64 35.15c1.18,0.59 2.6,1.41 3.74,2.04 1.13,0.63 2.52,1.53 3.61,2.19 1.09,0.65 2.46,1.61 3.53,2.29 46.51,29.08 121.81,81.83 82.49,155.23 -13.01,24.27 -41.78,58.6 -65.52,75.71l-49.83 31.25c-13.38,7.72 -4.74,3.44 -13.59,6.28 -29.93,25.92 -37.48,26.18 -72.77,40.43 -125.13,50.5 -292.86,102.24 -422.79,139.47 -37.02,10.6 -144.88,34.68 -170.43,48.19 8.96,17.75 48.85,66.4 68.6,83.21 53.93,-5.24 243.41,-60.43 306.1,-79.61l291.86 -94.26 -0.49 32.01 3.8 -14.19c9.68,-40.55 2.77,-23.73 26.97,-31.88 15.15,-5.1 13.94,-5.02 24.55,-9.96 1.23,-0.57 2.68,-1.29 3.91,-1.86l12.01 -5.27c1.25,-0.57 2.73,-1.22 3.98,-1.79 32.45,-14.95 100.96,-42.33 124.24,-60.48l35 -23.09c42.84,-30.55 47.61,-34.38 78.3,-73.94 19.35,-24.94 27.21,-38.37 29.2,-54.03 2.74,-21.57 3.09,-58.37 -3.56,-75.9 -0.5,-1.32 -1.34,-2.8 -1.92,-4.04l-74.96 -77.6c-69.03,-49.49 -247.79,-57.44 -322.82,-57.44l5.15 11.89z"/>
  <path class="fil5" d="M1549.96 1507.78c-34.84,-36 -87.91,-27.73 -91.97,-71.72 26.76,-3.96 7.23,-4.26 33.28,11.19 42.89,25.43 188.15,102.19 219.25,100.39l-0.23 -99.77 -219.98 -84.49c-65.26,-24.38 -15.08,-14.63 -28.71,-54.68 -36.71,-107.85 11.07,-111.24 33.43,-130.7 -25.94,-22.59 -33.36,-67.76 -5.86,-95.02 28.22,-27.99 278.55,-19.82 326.03,-30.44 26.48,18.38 80.58,6.85 105.51,20.48 -8.51,10.08 6.27,2 -10.84,6.12l-106.16 -10.22c-46.06,-4.06 -75.11,4.18 -72.47,59.23 5.83,121.17 153.56,16.29 188.87,49.31 -27.89,15.07 -71.4,21.52 -100.8,28.05 -54.39,12.1 -57.85,5.49 -109.44,4.26 -23.93,-0.58 -39.29,6.58 -61.96,6.73 -41.63,0.28 -116.74,-21.77 -171.8,-17.78 -16.38,44.23 -32.22,102.22 29.1,118.06 34.91,9.02 96.33,28.53 130.07,33.94 31.47,5.05 86.1,-29.01 115.38,-42.61 40.36,-18.76 92.13,-51.47 110.28,-38.5 -7.84,24.16 -15.7,13.5 -33.43,31.73 34.56,13.72 47.13,5.34 71.94,35.84 14.63,87.5 -36.91,117.62 -73.71,151.41 -38.33,35.2 -66.06,61.54 -110.26,103.72 -36.15,-5.23 -117.02,-68.1 -165.52,-84.53zm326.57 -540.58c-369.2,-112.78 -704.14,14.16 -506.38,416.94 20.6,41.95 115.47,202.76 150.88,227.29 41.18,63.86 97.4,111.5 149.59,171.63 23.18,-13.55 52.62,-46.39 73.43,-64.47 21.71,-18.87 54.51,-48.69 77.87,-68.22 47.59,-39.79 103.91,-89.16 158.74,-127.12 47.89,-33.16 35.61,-27.92 44.22,-99.63 5.29,-44.07 11.07,-89.41 17.09,-132.2 12.67,-90.06 34.87,-175.25 45.97,-255.26 -27.51,-18.13 -172.53,-62.23 -211.41,-68.96z"/>
  <path class="fil5" d="M3434.58 2101.97c-5.37,51.12 10.69,92.28 3.45,126.95 -16.09,77.06 8.78,341.65 -12.6,398.32 -16.35,5.96 -262.74,17.63 -287.37,-7.05 -10.7,-53.63 -3.98,-222.45 -3.93,-287.78 0.05,-56.89 -22.85,-223.2 14.83,-242.64 39.61,-13.99 102.1,-3.41 147.87,-3.88 66.46,-0.68 102.89,-9.3 137.75,16.08zm-327.03 555.33c56.31,29.39 256.7,44.9 327.56,36.26 116.34,-14.19 187.18,-55.7 227.79,-150.28 45.64,-106.27 -13.16,-232.69 -49.72,-312.05 -47.81,-103.76 -79.85,-130.69 -130.05,-200.99 -13.46,-18.85 -6.92,-17.35 -26.46,-29.24 -3.09,-6.42 -3.5,-7.79 -10.1,-16.63 -1.05,-1.41 -4.48,-5.69 -5.66,-7.09 -5.72,-6.77 -4.68,-5.57 -10.23,-10.99 -10.52,8.41 -293.24,81.59 -324.87,61.31l-103.45 80.57c-41.58,29.03 -31.41,44.19 -44.26,148.62l-55.24 340.08c59.17,11.37 144.66,56.63 204.69,60.43z"/>
  <path class="fil1" d="M1553.01 2546.49l374.03 0.51 -14.83 -62.06c-76.66,-0.27 -60.68,10.47 -67.58,-29.63l-45.03 0c-4.27,-8.49 -5.67,-12.1 -5.63,-29.53l123.39 -4.07c19.81,-33.8 17.97,-225.54 5.58,-261.28 -1.76,-0.79 -3.84,-1.44 -5.44,-1.87 -49.95,-13.32 -330.41,-4.72 -349.88,1.1 -12.74,38.29 -6.8,211.54 -2.98,264.09l122.84 2.87 0.37 28.69c-12.98,0 -27.66,-2.38 -39.5,2.32 -24.54,9.74 -8.38,5.93 -22.59,27.15l-61.01 0.01c-11.22,29.23 -18.37,34.21 -11.74,61.7z"/>
  <path class="fil6" d="M3540.48 1294.94c-2.18,-26.54 -10.03,-42.92 -22.48,-58.72 -29.55,-37.5 -12.46,-27.72 -25.85,-52.01 -9.83,-17.84 -33.88,-24.94 -57.45,-15.12 -19.04,7.93 -20.05,26.83 -31.32,46.81 -34.09,1.74 -72.04,0.32 -106.55,0.07 -26.99,-0.2 -97.04,7.19 -95.62,-9.85 -10.94,-16.5 -19.35,-39.4 -50.24,-39.14 -39.76,0.34 -32.3,18.98 -45.46,46.19 -33.97,70.21 -24.28,-16.61 -46.2,144.41 -7.35,54 -25.17,136.56 25.61,150.61 62.38,17.26 72.07,-47.49 99.76,-83.4 19.92,7.86 43.78,25.95 69.13,6.63 34.28,-26.14 5.45,-35.38 71.06,-30.04 15.98,16.02 15.07,32.18 41.49,38.29 27.07,6.26 37.46,-8.86 57.61,-14.21 11.23,22.51 23.52,52.51 38.65,67.98 18.81,19.24 61.91,26.28 81.34,3.97 25.75,-29.57 5.23,-155.58 -3.48,-202.47z"/>
  <path class="fil6" d="M1549.96 1507.78c48.5,16.42 129.37,79.3 165.52,84.53 44.2,-42.18 71.92,-68.52 110.26,-103.71 36.8,-33.8 88.34,-63.92 73.71,-151.42 -24.81,-30.5 -37.38,-22.12 -71.94,-35.84 17.73,-18.23 25.59,-7.57 33.43,-31.73 -18.15,-12.97 -69.92,19.74 -110.28,38.5 -29.28,13.6 -83.91,47.67 -115.38,42.62 -33.74,-5.42 -95.16,-24.93 -130.06,-33.95 -61.33,-15.84 -45.49,-73.83 -29.11,-118.06 55.06,-4 130.17,18.06 171.8,17.78 22.67,-0.16 38.03,-7.31 61.97,-6.73 51.58,1.23 55.04,7.84 109.43,-4.26 29.4,-6.54 72.91,-12.98 100.8,-28.05 -35.31,-33.02 -183.05,71.86 -188.87,-49.31 -2.65,-55.05 26.41,-63.29 72.47,-59.23l106.17 10.22c17.1,-4.12 2.32,3.96 10.83,-6.12 -24.93,-13.62 -79.03,-2.1 -105.51,-20.47 -47.48,10.61 -297.81,2.45 -326.03,30.43 -27.49,27.26 -20.08,72.43 5.86,95.03 -22.36,19.45 -70.14,22.84 -33.43,130.69 13.62,40.04 -36.55,30.3 28.71,54.67l219.98 84.5 0.23 99.77c-31.1,1.8 -176.35,-74.96 -219.25,-100.39 -26.05,-15.45 -6.52,-15.15 -33.28,-11.19 4.06,43.99 57.13,35.72 91.97,71.72z"/>
  <polygon class="fil4" points="3162.04,2558.71 3404.78,2560.05 3406.07,2126.38 3163.13,2127.51 "/>
  <path class="fil3" d="M2069.55 2578.47c35.19,-1.8 163.47,-56.66 197.34,-71.8 62.23,-27.83 131.16,-66.18 190.19,-87.7l-22.84 -20.21c-9.56,-5.78 -19.62,-9.87 -30.48,-15.66l-377.44 -251.52c-8.24,123.12 31.69,323.69 43.23,446.89z"/>
  <path class="fil3" d="M2533.12 1216.41c90.69,38.37 230.86,140.47 321,200.36 33.08,21.98 75.43,60.24 110.41,75.34 -6.37,-153.4 -24.15,-297.91 -45.07,-443.96 -35.38,2.07 -160.63,57.01 -200.16,74.37 -32.62,14.34 -64.12,27.62 -95.53,42.27 -29.14,13.58 -74.93,30.13 -90.65,51.62z"/>
  <path class="fil3" d="M2044.31 1472.91l370.71 -229.45c24.31,-13.32 42.26,-18.07 54.47,-38.22 -57.96,-17.23 -242.39,-129.95 -360.1,-162.75 -21.84,126.85 -62.64,296.08 -65.08,430.42z"/>
  <path class="fil2" d="M2853.83 1634.4c-65.6,44.9 -378.42,129.4 -470.08,124.58 -47.96,-106.6 -184.91,-48.77 -173.78,56.47 4.36,41.27 38.67,85.4 83.08,84.93 40.99,-0.43 76.51,-34.3 95.35,-68.25 36.61,-4.03 91.07,-8.92 123.45,-9.49 41,-0.72 73.17,-9.37 117.63,-15.03 51,-6.48 177.85,-42.46 218.74,-34.57 22.65,-17.03 3.9,-6.01 28.13,-12.28 16.67,-4.31 11.54,-2.7 26.51,-7.42 22.03,-6.94 40.76,-10.69 66.63,-10.69l-0.55 -153.59c-13.98,3.25 -13.72,9.47 -28.16,15.63l-86.95 29.71z"/>
  <path class="fil3" d="M2518.72 2416.83c65.42,36.85 297.85,154.92 362.09,166.54 20.88,-123.3 63.4,-298.3 64.86,-428.65l-317.81 200.77c-25.42,14.15 -84.44,40.85 -109.14,61.34z"/>
  <polygon class="fil4" points="1586.48,2393.88 1900.57,2394.87 1900.56,2184.94 1586.48,2184.79 "/>
  <path class="fil3" d="M2995.48 1729.47l-8.94 246.67c33.97,-2.32 53.41,-17.86 91.56,-18.56 27.18,-0.5 32.72,3.56 54.13,-6.39l40.54 -14.02c12,-3.73 115.04,-90.7 125.05,-114.66 -21.24,-24.91 -50.6,-49.35 -73.94,-73.43 -21.32,-22 -53.45,-50.44 -80.44,-70.28l-147.96 50.67z"/>
  <path class="fil2" d="M2515.15 2037.53c-24.42,13.93 -129.99,6.7 -164.18,3.76 -42.81,-3.67 -39.68,2.28 -59.43,-26.51 -13.56,-19.77 -28.38,-31.75 -54.38,-31.32 -50.75,0.85 -78.5,64.41 -51.35,110.35 44.09,74.59 112.7,-1.2 112.86,-1.26 31.04,1.64 204.83,4.68 215.69,12.56 77.51,0 246.04,-14.32 330.43,-28.34 27.18,-4.51 85.15,-8.52 110.81,-8.52l6.12 -98.3c-55.52,25.65 -258.92,44.87 -326.27,55.65 -28.74,4.59 -100,3.24 -120.3,11.93z"/>
  <path class="fil7" d="M1407.27 2164.62c-8.78,38.79 -6.76,227.76 -4.05,284.7 3.3,69.07 3.69,61.24 87.96,61.31 67.48,0.06 64,14.27 63.55,-135.21 -0.17,-59.25 5.34,-153.89 -2.09,-208.69 -36.05,-10.69 -105.65,-5.44 -145.37,-2.11z"/>
  <path class="fil6" d="M2351.28 2878.36l14.6 -16.41c39.7,11.86 55.27,38.28 113.8,19.23 46.79,-15.23 53.42,-41.24 74.75,-74.5l4.48 -31.94c1.52,-1.09 3.74,-1.73 5.01,-2.37 42.11,-21.2 12.72,-7.58 17.51,-43.6 2.21,-16.66 13.53,-1.22 4.17,-20.72 -15.9,-21.6 0.33,1.6 -21.06,-13.33l-40.6 -31.44c-69.68,-68.4 -166.28,-32.52 -192.13,49.48 -16.68,52.9 -2.66,77.28 12.66,117.27 -7.49,15.2 -47.67,55.53 6.81,48.33z"/>
  <path class="fil6" d="M2772.08 918.87l-3.43 -142.29 -167.26 1.59c-1.27,29.31 -3.78,89.72 -1.26,117.17 4.15,45.31 11.98,11.5 9.03,39.99 -1.9,18.4 -9.14,10.93 -7.58,44.94l166.65 1.1c1.36,-39.53 -6.7,-26.82 -13.32,-55.79l17.17 -6.71z"/>
  <path class="fil6" d="M2224.42 981.1l164.89 0.2c2.17,-27.81 -2.29,-32.54 -12.3,-49.58 10.32,-20.31 15.37,1.64 14.11,-67.5 -0.53,-29.31 -0.3,-57.36 -1.88,-86.8l-164 -0.13c-4.46,38.05 -8.28,103.25 2.71,139.09 12.22,39.81 -7.53,11.26 -3.53,64.72z"/>
  <path class="fil6" d="M2408.62 696.23l169.44 1.38c2.23,-25.4 1.81,-19.75 -4.04,-40.27l-9.63 -8.21c11.33,-30.48 6.06,8.05 14.04,-25.13l0.48 -130.16 -167.01 1.74c-0.42,34.02 -3.25,84.62 -0.55,116.98 3.6,42.98 10.91,11.13 7.9,40.67 -0.05,0.48 -8.69,33.25 -10.63,43z"/>
  <path class="fil7" d="M2613.67 2630.15l-16.95 39.71c6.75,5.72 22.66,19.08 23.8,32.52 1.12,13.1 -2.07,11.76 -12.47,24.15 -11.48,13.67 0.26,-4.02 -9.49,11.35l13.67 37.94 45.41 -1.73 10.04 42.32 40.3 3.08c13.72,-23.36 0.12,-26.91 22.69,-37.41 13,-6.04 24.64,1.16 39.04,2.64l14.62 -43.2c-10.07,-15.82 -13.55,-14.21 -12.9,-28.04 0.79,-16.88 12.21,-19.65 23.13,-27.22l-15.48 -44.66c-71,1.28 -35.52,4.21 -59.83,-39.53l-39.4 7.13c-25.63,46.53 -9.46,27.75 -66.18,20.95z"/>
  <path class="fil4" d="M2496.97 2762.45c-3.25,-33.4 2.66,-4.55 3.04,-31.54 0.43,-30.25 -10.86,-8.33 5.17,-44.13 0.42,-0.92 1.74,-2.66 2.14,-4.19 -93.7,-79.67 -192.86,27.34 -145,126.31 15.79,32.67 60.49,64.93 113.94,44.37 21.34,-8.21 38.82,-26.39 46.68,-42.44 23.86,-48.65 -25.43,-48.22 -25.97,-48.38z"/>
  <path class="fil1" d="M3188.3 2311.92c-9.21,30.4 -11.82,97.16 -0.59,127.59l170.98 1.92c30.97,-5.23 26.02,-7.48 25.69,-84.92 -0.2,-45.95 -3.66,-36.57 -25.31,-56.01 -1.48,-1.33 -3.53,-2.8 -4.96,-4.58l17.85 -14.16c-27.46,14.05 -7.6,31.15 -74.99,30.1 -35.24,-0.55 -73.67,-2.35 -108.67,0.06z"/>
  <path class="fil2" d="M3105.81 2027.6c31.63,20.28 314.35,-52.9 324.87,-61.32 -81.51,-95.13 -48.06,-85.41 -146.82,-60.89 -63.92,15.87 -57.55,21.13 -122.37,76 -18.32,15.51 -34.62,32.77 -55.68,46.21z"/>
  <path class="fil4" d="M1715.26 1441.32l-0.36 110.89 151.68 -129.23c20.29,-21.03 23.62,-52.36 14.87,-83.97 -27.82,-4.68 -61.48,28.93 -84.18,44.76 -29.62,20.65 -54.34,40.73 -82.01,57.55z"/>
  <path class="fil4" d="M2238.99 893.8c27.23,6.58 108.91,6.77 135.09,-1.21l1.11 -99.81c-23.13,-7.26 -111.56,-6.82 -136.38,-1.84l0.18 102.86z"/>
  <polygon class="fil4" points="2617.13,896.54 2752.23,896.82 2752.99,790.25 2617.54,788.21 "/>
  <polygon class="fil5" points="2427.61,611.79 2562.32,613.41 2562.7,507.03 2428.41,506.13 "/>
  <path class="fil2" d="M2995.48 1729.47l147.96 -50.67c-4.99,-9.39 -55.78,-50.36 -65.55,-58.78 -26.18,-22.54 -41.7,-47.2 -82.14,-42.14 -6.45,33.04 -3.56,115.91 -0.27,151.59z"/>
  <path class="fil0" d="M2273.66 1744.76c-24.59,16.58 -46.74,40 -28.52,87.24 10.62,27.53 43.72,50.06 80.77,32.77 78.19,-36.5 23.08,-170.79 -52.25,-120.01z"/>
  <path class="fil0" d="M2220.11 2017.58c-49.41,26.68 -12.83,103.54 35.36,77.57 43.22,-23.3 12.8,-103.58 -35.36,-77.57z"/>
 </g>
</svg>
